<?xml version="1.0" encoding="UTF-8"?>
<!DOCTYPE svg PUBLIC "-//W3C//DTD SVG 1.1//EN" "http://www.w3.org/Graphics/SVG/1.1/DTD/svg11.dtd">
<!-- Creator: CorelDRAW -->
<svg xmlns="http://www.w3.org/2000/svg" xml:space="preserve" width="15.1586mm" height="6.2237mm" style="shape-rendering:geometricPrecision; text-rendering:geometricPrecision; image-rendering:optimizeQuality; fill-rule:evenodd; clip-rule:evenodd"
viewBox="0 0 0.88627 0.363878"
 xmlns:xlink="http://www.w3.org/1999/xlink">
 <defs>
  <style type="text/css">
   <![CDATA[
    .str1 {stroke:white;stroke-width:0.0190075;stroke-linecap:round;stroke-linejoin:round}
    .str0 {stroke:black;stroke-width:0.0390381;stroke-linecap:round;stroke-linejoin:round}
    .fil0 {fill:none;fill-rule:nonzero}
    .fil3 {fill:black;fill-rule:nonzero}
    .fil1 {fill:blue;fill-rule:nonzero}
    .fil2 {fill:url(#id0);fill-rule:nonzero}
   ]]>
  </style>
  <linearGradient id="id0" gradientUnits="userSpaceOnUse" x1="0.409043" y1="0.0339632" x2="0.409043" y2="0.295998">
   <stop offset="0" style="stop-color:blue"/>
   <stop offset="0.368627" style="stop-color:#0052FF"/>
   <stop offset="1" style="stop-color:#00A5FE"/>
  </linearGradient>
 </defs>
 <g id="Layer_x0020_1">
  <metadata id="CorelCorpID_0Corel-Layer"/>
  <g id="_1054073264">
   <g>
    <g>
     <path id="_454780128" class="fil0 str0" d="M0.0245852 0.268168l0 -0.243911 0.102983 0c0.00237374,0 0.0055894,5.84665e-005 0.0096002,0.000228019 0.00400496,0.000169553 0.00756557,0.000567125 0.0107228,0.0011284 0.0145699,0.00226265 0.0265379,0.00705691 0.0358517,0.0144003 0.00931956,0.00733755 0.0161484,0.0165402 0.0205568,0.0276664 0.00440253,0.0111203 0.00660087,0.0235386 0.00660087,0.0372022 0,0.0136636 -0.00219834,0.0260293 -0.00665934,0.0371555 -0.00446099,0.0111203 -0.0113483,0.0203814 -0.0206621,0.027719 -0.00931956,0.00734339 -0.0212292,0.0121376 -0.035688,0.0144003 -0.00315719,0.000450192 -0.00677042,0.000789298 -0.0108397,0.00101147 -0.00406342,0.000228019 -0.00722646,0.000339106 -0.00948327,0.000339106l-0.0569113 0 0 0.0826599 -0.0460716 0zm0.0460716 -0.12568l0.0548767 0c0.00237374,0 0.00496965,-0.000111086 0.00779359,-0.000339106 0.00282393,-0.000228019 0.00541985,-0.000678212 0.00779359,-0.00135642 0.00620914,-0.00169553 0.0110092,-0.00457208 0.0143945,-0.00858288 0.00338521,-0.00400496 0.00575895,-0.00846595 0.00705691,-0.0133771 0.00129796,-0.00491119 0.00192355,-0.00954173 0.00192355,-0.0139501 0,-0.00440253 -0.000625592,-0.0090857 -0.00192355,-0.0139969 -0.00129796,-0.00491703 -0.0036717,-0.00937218 -0.00705691,-0.013383 -0.00338521,-0.0040108 -0.00818531,-0.00683473 -0.0143945,-0.00852442 -0.00237374,-0.000678212 -0.00496965,-0.0011284 -0.00779359,-0.00135642 -0.00282393,-0.000228019 -0.00541985,-0.000339106 -0.00779359,-0.000339106l-0.0548767 0 0 0.0752055z"/>
    </g>
    <g>
     <polygon id="_4547801281" class="fil0 str0" points="0.244782,0.268168 0.244782,0.0242578 0.290853,0.0242578 0.290853,0.13673 0.383675,0.0242578 0.439908,0.0242578 0.337942,0.144523 0.446345,0.268168 0.388077,0.268168 0.290853,0.157053 0.290853,0.268168 "/>
    </g>
    <g>
     <polygon id="_45478012812" class="fil0 str0" points="0.526631,0.268168 0.526631,0.0672833 0.44973,0.0672833 0.44973,0.0242578 0.649604,0.0242578 0.649604,0.0672833 0.572703,0.0672833 0.572703,0.268168 "/>
    </g>
    <g>
     <path id="_454780128123" class="fil0 str0" d="M0.768846 0.273249c-0.0180662,0 -0.0343315,-0.00321566 -0.0488371,-0.0096002 -0.0145114,-0.0063787 -0.0264269,-0.0155229 -0.0357406,-0.0274383 -0.00931371,-0.0119096 -0.0152422,-0.0260819 -0.017727,-0.0425695l0.0481004 -0.00711537c0.00339106,0.0140027 0.0103895,0.0247898 0.021007,0.0323554 0.0106117,0.00756557 0.0226967,0.0113483 0.0362434,0.0113483 0.00756557,0 0.014909,-0.00118687 0.0220185,-0.00356061 0.00711537,-0.00236789 0.0129913,-0.00587004 0.0175633,-0.0105006 0.00457208,-0.00463055 0.00682889,-0.010331 0.00682889,-0.0171073 0,-0.00248483 -0.000339106,-0.00491119 -0.00106994,-0.00722646 -0.000736678,-0.00231527 -0.00197617,-0.00446099 -0.0036717,-0.00649563 -0.00169553,-0.00202879 -0.00406342,-0.00395234 -0.00716799,-0.00575895 -0.00311042,-0.00180662 -0.00705691,-0.00344368 -0.0118044,-0.00491119l-0.0633485 -0.0186274c-0.00474163,-0.00135642 -0.0102199,-0.00327997 -0.0164817,-0.00575895 -0.00626761,-0.00248483 -0.0123657,-0.00604544 -0.0182416,-0.010676 -0.00587004,-0.0046247 -0.0107228,-0.0107812 -0.0146225,-0.0184053 -0.00389387,-0.00761819 -0.00587004,-0.0172184 -0.00587004,-0.0288474 0,-0.0163765 0.00412189,-0.0299816 0.0123657,-0.0408213 0.00824378,-0.0108397 0.019253,-0.0189139 0.0330277,-0.0242227 0.0137747,-0.00530876 0.0290228,-0.00790467 0.0457325,-0.00779359 0.0168267,0.000228019 0.0318467,0.00310457 0.0450543,0.00864135 0.0132134,0.00553093 0.0242811,0.0135467 0.0331973,0.0241057 0.00892199,0.0105591 0.0153592,0.0234918 0.0193115,0.0387341l-0.0497959 0.00846595c-0.00180662,-0.00790467 -0.00513921,-0.014564 -0.00999193,-0.0199839 -0.00485857,-0.00541985 -0.0106175,-0.00954173 -0.0173353,-0.0123657 -0.0067178,-0.00282393 -0.0137747,-0.00434991 -0.0211181,-0.00457208 -0.00722646,-0.000228019 -0.0140027,0.000730831 -0.0203814,0.00293502 -0.0063787,0.00220419 -0.0115764,0.00541985 -0.0155813,0.0096002 -0.0040108,0.00417451 -0.00603959,0.00914416 -0.00603959,0.0149031 0,0.00530876 0.00163706,0.0096002 0.00491119,0.0129269 0.00327412,0.00333259 0.00739601,0.00604544 0.0123657,0.00807422 0.00496381,0.00203463 0.0100445,0.00373016 0.0152422,0.00508074l0.0423473 0.0115179c0.00632023,0.00169553 0.0133245,0.00389972 0.0210012,0.00666518 0.00767665,0.00276547 0.0150727,0.00660672 0.0221296,0.0115179 0.00705691,0.00491119 0.0128743,0.0114068 0.0174464,0.0194226 0.00457208,0.00801576 0.00683473,0.0181772 0.00683473,0.0304903 0,0.0130965 -0.00271285,0.0245033 -0.00818531,0.0342672 -0.00547831,0.00976975 -0.0128743,0.017844 -0.0221354,0.0242227 -0.00926109,0.0063787 -0.0197032,0.0111788 -0.0313907,0.0143418 -0.0116875,0.00316304 -0.0237725,0.00474163 -0.0361908,0.00474163z"/>
    </g>
    <path id="_4547801281234" class="fil1" d="M0.0245852 0.268168l0 -0.243911 0.102983 0c0.00237374,0 0.0055894,5.84665e-005 0.0096002,0.000228019 0.00400496,0.000169553 0.00756557,0.000567125 0.0107228,0.0011284 0.0145699,0.00226265 0.0265379,0.00705691 0.0358517,0.0144003 0.00931956,0.00733755 0.0161484,0.0165402 0.0205568,0.0276664 0.00440253,0.0111203 0.00660087,0.0235386 0.00660087,0.0372022 0,0.0136636 -0.00219834,0.0260293 -0.00665934,0.0371555 -0.00446099,0.0111203 -0.0113483,0.0203814 -0.0206621,0.027719 -0.00931956,0.00734339 -0.0212292,0.0121376 -0.035688,0.0144003 -0.00315719,0.000450192 -0.00677042,0.000789298 -0.0108397,0.00101147 -0.00406342,0.000228019 -0.00722646,0.000339106 -0.00948327,0.000339106l-0.0569113 0 0 0.0826599 -0.0460716 0zm0.0460716 -0.12568l0.0548767 0c0.00237374,0 0.00496965,-0.000111086 0.00779359,-0.000339106 0.00282393,-0.000228019 0.00541985,-0.000678212 0.00779359,-0.00135642 0.00620914,-0.00169553 0.0110092,-0.00457208 0.0143945,-0.00858288 0.00338521,-0.00400496 0.00575895,-0.00846595 0.00705691,-0.0133771 0.00129796,-0.00491119 0.00192355,-0.00954173 0.00192355,-0.0139501 0,-0.00440253 -0.000625592,-0.0090857 -0.00192355,-0.0139969 -0.00129796,-0.00491703 -0.0036717,-0.00937218 -0.00705691,-0.013383 -0.00338521,-0.0040108 -0.00818531,-0.00683473 -0.0143945,-0.00852442 -0.00237374,-0.000678212 -0.00496965,-0.0011284 -0.00779359,-0.00135642 -0.00282393,-0.000228019 -0.00541985,-0.000339106 -0.00779359,-0.000339106l-0.0548767 0 0 0.0752055z"/>
    <polygon id="_45478012812345" class="fil1" points="0.244782,0.268168 0.244782,0.0242578 0.290853,0.0242578 0.290853,0.13673 0.383675,0.0242578 0.439908,0.0242578 0.337942,0.144523 0.446345,0.268168 0.388077,0.268168 0.290853,0.157053 0.290853,0.268168 "/>
    <polygon id="_454780128123456" class="fil1" points="0.526631,0.268168 0.526631,0.0672833 0.44973,0.0672833 0.44973,0.0242578 0.649604,0.0242578 0.649604,0.0672833 0.572703,0.0672833 0.572703,0.268168 "/>
    <path id="_4547801281234567" class="fil1" d="M0.768846 0.273249c-0.0180662,0 -0.0343315,-0.00321566 -0.0488371,-0.0096002 -0.0145114,-0.0063787 -0.0264269,-0.0155229 -0.0357406,-0.0274383 -0.00931371,-0.0119096 -0.0152422,-0.0260819 -0.017727,-0.0425695l0.0481004 -0.00711537c0.00339106,0.0140027 0.0103895,0.0247898 0.021007,0.0323554 0.0106117,0.00756557 0.0226967,0.0113483 0.0362434,0.0113483 0.00756557,0 0.014909,-0.00118687 0.0220185,-0.00356061 0.00711537,-0.00236789 0.0129913,-0.00587004 0.0175633,-0.0105006 0.00457208,-0.00463055 0.00682889,-0.010331 0.00682889,-0.0171073 0,-0.00248483 -0.000339106,-0.00491119 -0.00106994,-0.00722646 -0.000736678,-0.00231527 -0.00197617,-0.00446099 -0.0036717,-0.00649563 -0.00169553,-0.00202879 -0.00406342,-0.00395234 -0.00716799,-0.00575895 -0.00311042,-0.00180662 -0.00705691,-0.00344368 -0.0118044,-0.00491119l-0.0633485 -0.0186274c-0.00474163,-0.00135642 -0.0102199,-0.00327997 -0.0164817,-0.00575895 -0.00626761,-0.00248483 -0.0123657,-0.00604544 -0.0182416,-0.010676 -0.00587004,-0.0046247 -0.0107228,-0.0107812 -0.0146225,-0.0184053 -0.00389387,-0.00761819 -0.00587004,-0.0172184 -0.00587004,-0.0288474 0,-0.0163765 0.00412189,-0.0299816 0.0123657,-0.0408213 0.00824378,-0.0108397 0.019253,-0.0189139 0.0330277,-0.0242227 0.0137747,-0.00530876 0.0290228,-0.00790467 0.0457325,-0.00779359 0.0168267,0.000228019 0.0318467,0.00310457 0.0450543,0.00864135 0.0132134,0.00553093 0.0242811,0.0135467 0.0331973,0.0241057 0.00892199,0.0105591 0.0153592,0.0234918 0.0193115,0.0387341l-0.0497959 0.00846595c-0.00180662,-0.00790467 -0.00513921,-0.014564 -0.00999193,-0.0199839 -0.00485857,-0.00541985 -0.0106175,-0.00954173 -0.0173353,-0.0123657 -0.0067178,-0.00282393 -0.0137747,-0.00434991 -0.0211181,-0.00457208 -0.00722646,-0.000228019 -0.0140027,0.000730831 -0.0203814,0.00293502 -0.0063787,0.00220419 -0.0115764,0.00541985 -0.0155813,0.0096002 -0.0040108,0.00417451 -0.00603959,0.00914416 -0.00603959,0.0149031 0,0.00530876 0.00163706,0.0096002 0.00491119,0.0129269 0.00327412,0.00333259 0.00739601,0.00604544 0.0123657,0.00807422 0.00496381,0.00203463 0.0100445,0.00373016 0.0152422,0.00508074l0.0423473 0.0115179c0.00632023,0.00169553 0.0133245,0.00389972 0.0210012,0.00666518 0.00767665,0.00276547 0.0150727,0.00660672 0.0221296,0.0115179 0.00705691,0.00491119 0.0128743,0.0114068 0.0174464,0.0194226 0.00457208,0.00801576 0.00683473,0.0181772 0.00683473,0.0304903 0,0.0130965 -0.00271285,0.0245033 -0.00818531,0.0342672 -0.00547831,0.00976975 -0.0128743,0.017844 -0.0221354,0.0242227 -0.00926109,0.0063787 -0.0197032,0.0111788 -0.0313907,0.0143418 -0.0116875,0.00316304 -0.0237725,0.00474163 -0.0361908,0.00474163z"/>
    <g>
     <path class="fil0 str1" d="M0.0245852 0.268168l0 -0.243911 0.102983 0c0.00237374,0 0.0055894,5.84665e-005 0.0096002,0.000228019 0.00400496,0.000169553 0.00756557,0.000567125 0.0107228,0.0011284 0.0145699,0.00226265 0.0265379,0.00705691 0.0358517,0.0144003 0.00931956,0.00733755 0.0161484,0.0165402 0.0205568,0.0276664 0.00440253,0.0111203 0.00660087,0.0235386 0.00660087,0.0372022 0,0.0136636 -0.00219834,0.0260293 -0.00665934,0.0371555 -0.00446099,0.0111203 -0.0113483,0.0203814 -0.0206621,0.027719 -0.00931956,0.00734339 -0.0212292,0.0121376 -0.035688,0.0144003 -0.00315719,0.000450192 -0.00677042,0.000789298 -0.0108397,0.00101147 -0.00406342,0.000228019 -0.00722646,0.000339106 -0.00948327,0.000339106l-0.0569113 0 0 0.0826599 -0.0460716 0zm0.0460716 -0.12568l0.0548767 0c0.00237374,0 0.00496965,-0.000111086 0.00779359,-0.000339106 0.00282393,-0.000228019 0.00541985,-0.000678212 0.00779359,-0.00135642 0.00620914,-0.00169553 0.0110092,-0.00457208 0.0143945,-0.00858288 0.00338521,-0.00400496 0.00575895,-0.00846595 0.00705691,-0.0133771 0.00129796,-0.00491119 0.00192355,-0.00954173 0.00192355,-0.0139501 0,-0.00440253 -0.000625592,-0.0090857 -0.00192355,-0.0139969 -0.00129796,-0.00491703 -0.0036717,-0.00937218 -0.00705691,-0.013383 -0.00338521,-0.0040108 -0.00818531,-0.00683473 -0.0143945,-0.00852442 -0.00237374,-0.000678212 -0.00496965,-0.0011284 -0.00779359,-0.00135642 -0.00282393,-0.000228019 -0.00541985,-0.000339106 -0.00779359,-0.000339106l-0.0548767 0 0 0.0752055z"/>
    </g>
    <g>
     <polygon id="1" class="fil0 str1" points="0.244782,0.268168 0.244782,0.0242578 0.290853,0.0242578 0.290853,0.13673 0.383675,0.0242578 0.439908,0.0242578 0.337942,0.144523 0.446345,0.268168 0.388077,0.268168 0.290853,0.157053 0.290853,0.268168 "/>
    </g>
    <g>
     <polygon id="12" class="fil0 str1" points="0.526631,0.268168 0.526631,0.0672833 0.44973,0.0672833 0.44973,0.0242578 0.649604,0.0242578 0.649604,0.0672833 0.572703,0.0672833 0.572703,0.268168 "/>
    </g>
    <g>
     <path id="123" class="fil0 str1" d="M0.768846 0.273249c-0.0180662,0 -0.0343315,-0.00321566 -0.0488371,-0.0096002 -0.0145114,-0.0063787 -0.0264269,-0.0155229 -0.0357406,-0.0274383 -0.00931371,-0.0119096 -0.0152422,-0.0260819 -0.017727,-0.0425695l0.0481004 -0.00711537c0.00339106,0.0140027 0.0103895,0.0247898 0.021007,0.0323554 0.0106117,0.00756557 0.0226967,0.0113483 0.0362434,0.0113483 0.00756557,0 0.014909,-0.00118687 0.0220185,-0.00356061 0.00711537,-0.00236789 0.0129913,-0.00587004 0.0175633,-0.0105006 0.00457208,-0.00463055 0.00682889,-0.010331 0.00682889,-0.0171073 0,-0.00248483 -0.000339106,-0.00491119 -0.00106994,-0.00722646 -0.000736678,-0.00231527 -0.00197617,-0.00446099 -0.0036717,-0.00649563 -0.00169553,-0.00202879 -0.00406342,-0.00395234 -0.00716799,-0.00575895 -0.00311042,-0.00180662 -0.00705691,-0.00344368 -0.0118044,-0.00491119l-0.0633485 -0.0186274c-0.00474163,-0.00135642 -0.0102199,-0.00327997 -0.0164817,-0.00575895 -0.00626761,-0.00248483 -0.0123657,-0.00604544 -0.0182416,-0.010676 -0.00587004,-0.0046247 -0.0107228,-0.0107812 -0.0146225,-0.0184053 -0.00389387,-0.00761819 -0.00587004,-0.0172184 -0.00587004,-0.0288474 0,-0.0163765 0.00412189,-0.0299816 0.0123657,-0.0408213 0.00824378,-0.0108397 0.019253,-0.0189139 0.0330277,-0.0242227 0.0137747,-0.00530876 0.0290228,-0.00790467 0.0457325,-0.00779359 0.0168267,0.000228019 0.0318467,0.00310457 0.0450543,0.00864135 0.0132134,0.00553093 0.0242811,0.0135467 0.0331973,0.0241057 0.00892199,0.0105591 0.0153592,0.0234918 0.0193115,0.0387341l-0.0497959 0.00846595c-0.00180662,-0.00790467 -0.00513921,-0.014564 -0.00999193,-0.0199839 -0.00485857,-0.00541985 -0.0106175,-0.00954173 -0.0173353,-0.0123657 -0.0067178,-0.00282393 -0.0137747,-0.00434991 -0.0211181,-0.00457208 -0.00722646,-0.000228019 -0.0140027,0.000730831 -0.0203814,0.00293502 -0.0063787,0.00220419 -0.0115764,0.00541985 -0.0155813,0.0096002 -0.0040108,0.00417451 -0.00603959,0.00914416 -0.00603959,0.0149031 0,0.00530876 0.00163706,0.0096002 0.00491119,0.0129269 0.00327412,0.00333259 0.00739601,0.00604544 0.0123657,0.00807422 0.00496381,0.00203463 0.0100445,0.00373016 0.0152422,0.00508074l0.0423473 0.0115179c0.00632023,0.00169553 0.0133245,0.00389972 0.0210012,0.00666518 0.00767665,0.00276547 0.0150727,0.00660672 0.0221296,0.0115179 0.00705691,0.00491119 0.0128743,0.0114068 0.0174464,0.0194226 0.00457208,0.00801576 0.00683473,0.0181772 0.00683473,0.0304903 0,0.0130965 -0.00271285,0.0245033 -0.00818531,0.0342672 -0.00547831,0.00976975 -0.0128743,0.017844 -0.0221354,0.0242227 -0.00926109,0.0063787 -0.0197032,0.0111788 -0.0313907,0.0143418 -0.0116875,0.00316304 -0.0237725,0.00474163 -0.0361908,0.00474163z"/>
    </g>
    <path id="1234" class="fil2" d="M0.0245852 0.268168l0 -0.243911 0.102983 0c0.00237374,0 0.0055894,5.84665e-005 0.0096002,0.000228019 0.00400496,0.000169553 0.00756557,0.000567125 0.0107228,0.0011284 0.0145699,0.00226265 0.0265379,0.00705691 0.0358517,0.0144003 0.00931956,0.00733755 0.0161484,0.0165402 0.0205568,0.0276664 0.00440253,0.0111203 0.00660087,0.0235386 0.00660087,0.0372022 0,0.0136636 -0.00219834,0.0260293 -0.00665934,0.0371555 -0.00446099,0.0111203 -0.0113483,0.0203814 -0.0206621,0.027719 -0.00931956,0.00734339 -0.0212292,0.0121376 -0.035688,0.0144003 -0.00315719,0.000450192 -0.00677042,0.000789298 -0.0108397,0.00101147 -0.00406342,0.000228019 -0.00722646,0.000339106 -0.00948327,0.000339106l-0.0569113 0 0 0.0826599 -0.0460716 0zm0.0460716 -0.12568l0.0548767 0c0.00237374,0 0.00496965,-0.000111086 0.00779359,-0.000339106 0.00282393,-0.000228019 0.00541985,-0.000678212 0.00779359,-0.00135642 0.00620914,-0.00169553 0.0110092,-0.00457208 0.0143945,-0.00858288 0.00338521,-0.00400496 0.00575895,-0.00846595 0.00705691,-0.0133771 0.00129796,-0.00491119 0.00192355,-0.00954173 0.00192355,-0.0139501 0,-0.00440253 -0.000625592,-0.0090857 -0.00192355,-0.0139969 -0.00129796,-0.00491703 -0.0036717,-0.00937218 -0.00705691,-0.013383 -0.00338521,-0.0040108 -0.00818531,-0.00683473 -0.0143945,-0.00852442 -0.00237374,-0.000678212 -0.00496965,-0.0011284 -0.00779359,-0.00135642 -0.00282393,-0.000228019 -0.00541985,-0.000339106 -0.00779359,-0.000339106l-0.0548767 0 0 0.0752055z"/>
    <polygon id="12345" class="fil2" points="0.244782,0.268168 0.244782,0.0242578 0.290853,0.0242578 0.290853,0.13673 0.383675,0.0242578 0.439908,0.0242578 0.337942,0.144523 0.446345,0.268168 0.388077,0.268168 0.290853,0.157053 0.290853,0.268168 "/>
    <polygon id="123456" class="fil2" points="0.526631,0.268168 0.526631,0.0672833 0.44973,0.0672833 0.44973,0.0242578 0.649604,0.0242578 0.649604,0.0672833 0.572703,0.0672833 0.572703,0.268168 "/>
    <path id="1234567" class="fil2" d="M0.768846 0.273249c-0.0180662,0 -0.0343315,-0.00321566 -0.0488371,-0.0096002 -0.0145114,-0.0063787 -0.0264269,-0.0155229 -0.0357406,-0.0274383 -0.00931371,-0.0119096 -0.0152422,-0.0260819 -0.017727,-0.0425695l0.0481004 -0.00711537c0.00339106,0.0140027 0.0103895,0.0247898 0.021007,0.0323554 0.0106117,0.00756557 0.0226967,0.0113483 0.0362434,0.0113483 0.00756557,0 0.014909,-0.00118687 0.0220185,-0.00356061 0.00711537,-0.00236789 0.0129913,-0.00587004 0.0175633,-0.0105006 0.00457208,-0.00463055 0.00682889,-0.010331 0.00682889,-0.0171073 0,-0.00248483 -0.000339106,-0.00491119 -0.00106994,-0.00722646 -0.000736678,-0.00231527 -0.00197617,-0.00446099 -0.0036717,-0.00649563 -0.00169553,-0.00202879 -0.00406342,-0.00395234 -0.00716799,-0.00575895 -0.00311042,-0.00180662 -0.00705691,-0.00344368 -0.0118044,-0.00491119l-0.0633485 -0.0186274c-0.00474163,-0.00135642 -0.0102199,-0.00327997 -0.0164817,-0.00575895 -0.00626761,-0.00248483 -0.0123657,-0.00604544 -0.0182416,-0.010676 -0.00587004,-0.0046247 -0.0107228,-0.0107812 -0.0146225,-0.0184053 -0.00389387,-0.00761819 -0.00587004,-0.0172184 -0.00587004,-0.0288474 0,-0.0163765 0.00412189,-0.0299816 0.0123657,-0.0408213 0.00824378,-0.0108397 0.019253,-0.0189139 0.0330277,-0.0242227 0.0137747,-0.00530876 0.0290228,-0.00790467 0.0457325,-0.00779359 0.0168267,0.000228019 0.0318467,0.00310457 0.0450543,0.00864135 0.0132134,0.00553093 0.0242811,0.0135467 0.0331973,0.0241057 0.00892199,0.0105591 0.0153592,0.0234918 0.0193115,0.0387341l-0.0497959 0.00846595c-0.00180662,-0.00790467 -0.00513921,-0.014564 -0.00999193,-0.0199839 -0.00485857,-0.00541985 -0.0106175,-0.00954173 -0.0173353,-0.0123657 -0.0067178,-0.00282393 -0.0137747,-0.00434991 -0.0211181,-0.00457208 -0.00722646,-0.000228019 -0.0140027,0.000730831 -0.0203814,0.00293502 -0.0063787,0.00220419 -0.0115764,0.00541985 -0.0155813,0.0096002 -0.0040108,0.00417451 -0.00603959,0.00914416 -0.00603959,0.0149031 0,0.00530876 0.00163706,0.0096002 0.00491119,0.0129269 0.00327412,0.00333259 0.00739601,0.00604544 0.0123657,0.00807422 0.00496381,0.00203463 0.0100445,0.00373016 0.0152422,0.00508074l0.0423473 0.0115179c0.00632023,0.00169553 0.0133245,0.00389972 0.0210012,0.00666518 0.00767665,0.00276547 0.0150727,0.00660672 0.0221296,0.0115179 0.00705691,0.00491119 0.0128743,0.0114068 0.0174464,0.0194226 0.00457208,0.00801576 0.00683473,0.0181772 0.00683473,0.0304903 0,0.0130965 -0.00271285,0.0245033 -0.00818531,0.0342672 -0.00547831,0.00976975 -0.0128743,0.017844 -0.0221354,0.0242227 -0.00926109,0.0063787 -0.0197032,0.0111788 -0.0313907,0.0143418 -0.0116875,0.00316304 -0.0237725,0.00474163 -0.0361908,0.00474163z"/>
   </g>
   <path class="fil3" d="M0.00433237 0.349033l0 -0.0445339 0.0188028 0c0.000432652,0 0.00101732,1.16933e-005 0.00174815,4.09266e-005 0.000730831,2.92333e-005 0.00138566,0.00010524 0.00195863,0.000204633 0.00266023,0.000415112 0.00484687,0.00129211 0.00654825,0.00263099 0.00170138,0.00133888 0.00294671,0.00302272 0.00375355,0.00505151 0.000800991,0.00202879 0.00120441,0.00429729 0.00120441,0.00679381 0,0.00249652 -0.000403419,0.00475333 -0.0012161,0.00678212 -0.000812684,0.00202879 -0.00206971,0.00372432 -0.00377109,0.0050632 -0.00170138,0.00133888 -0.00387633,0.00221588 -0.00651902,0.00262515 -0.000572972,8.76998e-005 -0.00123364,0.000146166 -0.00197617,0.000187093 -0.000742525,4.09266e-005 -0.00132134,6.43132e-005 -0.00173061,6.43132e-005l-0.0103953 0 0 0.0150902 -0.00840748 0zm0.00840748 -0.0229481l0.0100212 0c0.000432652,0 0.000906231,-1.754e-005 0.00142074,-5.84665e-005 0.000520352,-4.09266e-005 0.000993931,-0.000128626 0.00142658,-0.000251406 0.00113425,-0.000309872 0.00201125,-0.000836071 0.00262515,-0.0015669 0.000619745,-0.000730831 0.0010524,-0.00154352 0.00129211,-0.0024439 0.000233866,-0.000894538 0.000350799,-0.0017423 0.000350799,-0.00254329 0,-0.000806838 -0.000116933,-0.00166045 -0.000350799,-0.00255499 -0.000239713,-0.000900384 -0.000672365,-0.00171307 -0.00129211,-0.0024439 -0.000613898,-0.000730831 -0.0014909,-0.00125118 -0.00262515,-0.00155521 -0.000432652,-0.000128626 -0.000906231,-0.000210479 -0.00142658,-0.000251406 -0.000514505,-4.09266e-005 -0.000988084,-5.84665e-005 -0.00142074,-5.84665e-005l-0.0100212 0 0 0.0137279z"/>
   <path id="1" class="fil3" d="M0.0569639 0.350021c-0.0026193,0 -0.00475333,-0.000444345 -0.00640208,-0.00132719 -0.00164876,-0.000888691 -0.00292917,-0.00201125 -0.0038471,-0.00337352 -0.000917924,-0.00135642 -0.00157275,-0.00278301 -0.00196447,-0.00425636 -0.000391726,-0.00147336 -0.000631438,-0.00281224 -0.000713291,-0.00402834 -8.18531e-005,-0.0012161 -0.00012278,-0.00210479 -0.00012278,-0.00266023l0 -0.0187444 0.00853611 0 0 0.0157743c0,0.000760065 4.09266e-005,0.00173061 0.00012278,0.00291748 8.18531e-005,0.00118687 0.000339106,0.00237959 0.000771758,0.00357815 0.000432652,0.00119272 0.00114594,0.00219249 0.00212233,0.00299933 0.000982237,0.000800991 0.00236205,0.00120441 0.00415697,0.00120441 0.000719138,0 0.0014909,-0.000111086 0.00232112,-0.000339106 0.000824378,-0.000228019 0.00159614,-0.000672365 0.00231527,-0.00132134 0.000724985,-0.000648978 0.00132134,-0.00160783 0.00178323,-0.00287655 0.000467732,-0.00126872 0.000689905,-0.00292333 0.000689905,-0.00498719l0.00482933 0.00228604c0,0.00264269 -0.000537892,0.00511582 -0.00161368,0.00742525 -0.00106994,0.00230943 -0.00267777,0.00417451 -0.00482933,0.00559524 -0.00215741,0.00142658 -0.00487611,0.00213403 -0.00815608,0.00213403zm0.0108222 -0.000988084l0 -0.0110736 -0.0010524 0 0 -0.0223284 0.00847764 0 0 0.0334019 -0.00742525 0z"/>
   <path id="12" class="fil3" d="M0.0969199 0.349963c-0.00420959,0 -0.00760065,-0.000958851 -0.0101849,-0.00286486 -0.00259007,-0.00191185 -0.00416866,-0.00460131 -0.00472409,-0.00808592l0.00860042 -0.00129796c0.000350799,0.0015669 0.00113425,0.0027947 0.00233866,0.00367754 0.00120441,0.000888691 0.00273039,0.00133304 0.00458377,0.00133304 0.00152598,0 0.00270115,-0.000298179 0.00352553,-0.000888691 0.000830224,-0.000584665 0.00123949,-0.00139735 0.00123949,-0.00244975 0,-0.000660672 -0.000163706,-0.00119856 -0.000496965,-0.00160198 -0.000327412,-0.000397572 -0.00105824,-0.000789298 -0.00220419,-0.00118102 -0.00114594,-0.000391726 -0.00292917,-0.000912078 -0.00533799,-0.00154936 -0.00272454,-0.000701598 -0.00489949,-0.00148505 -0.00652486,-0.00235035 -0.00163122,-0.000865304 -0.00280639,-0.00190601 -0.00352553,-0.00311042 -0.000724985,-0.00121026 -0.00108163,-0.00266023 -0.00108163,-0.00437329 0,-0.00214572 0.000543739,-0.0040108 0.00163706,-0.0055894 0.00109332,-0.00157275 0.00263684,-0.00278885 0.00463055,-0.00364831 0.00198786,-0.000853611 0.00432652,-0.00127457 0.00702767,-0.00127457 0.0026193,0 0.00494042,0.000397572 0.00695751,0.00120441 0.00202294,0.000800991 0.00366,0.00194693 0.00490534,0.00343198 0.00125118,0.00148505 0.00201125,0.00323904 0.00230358,0.00525614l-0.00860042 0.00154936c-0.000146166,-0.00123949 -0.000678212,-0.00221588 -0.00160783,-0.00294087 -0.000929617,-0.000719138 -0.00218665,-0.0011401 -0.00377109,-0.00126872 -0.00154936,-9.93931e-005 -0.00278301,0.00010524 -0.00372432,0.000619745 -0.000935464,0.000514505 -0.00140904,0.00125703 -0.00140904,0.00222757 0,0.000578818 0.000204633,0.00106409 0.000608052,0.00145582 0.000403419,0.000391726 0.00123364,0.000789298 0.00250237,0.00120441 0.00126872,0.000409266 0.00319812,0.000947157 0.00579403,0.00160783 0.00253745,0.000660672 0.00457793,0.00142074 0.0061156,0.00229773 0.00153182,0.000876998 0.00264853,0.00192939 0.00335013,0.00315719 0.000701598,0.0012278 0.0010524,0.002707 0.0010524,0.00444345 0,0.00342029 -0.00123949,0.00610975 -0.00371262,0.00806838 -0.00247313,0.00195863 -0.00589927,0.00294087 -0.0102667,0.00294087z"/>
   <path id="123" class="fil3" d="M0.126978 0.349963c-0.00239128,0 -0.00440837,-0.000467732 -0.00606882,-0.00138566 -0.00166045,-0.000917924 -0.00291748,-0.00213987 -0.00377109,-0.00367754 -0.000859458,-0.00153767 -0.00129211,-0.00322735 -0.00129211,-0.00508074 0,-0.00154936 0.000239713,-0.00295841 0.000713291,-0.00423882 0.000473579,-0.00128042 0.00124534,-0.00241467 0.00230943,-0.00339106 0.00105824,-0.000982237 0.00248483,-0.00179492 0.0042739,-0.00245559 0.00123949,-0.000450192 0.00271285,-0.000853611 0.00442591,-0.00120441 0.00171307,-0.000350799 0.00364831,-0.000689905 0.00581157,-0.00101147 0.00216911,-0.000315719 0.00454869,-0.000666518 0.00714461,-0.00105824l-0.00302857 0.0016663c0,-0.00197617 -0.000473579,-0.00343198 -0.00142658,-0.0043616 -0.000947157,-0.000923771 -0.0025316,-0.0013915 -0.00475917,-0.0013915 -0.00123949,0 -0.00252575,0.000304026 -0.00386464,0.000900384 -0.00133888,0.000596358 -0.00228019,0.00166045 -0.00281809,0.00318642l-0.00760649 -0.00241467c0.000847764,-0.00275962 0.00243221,-0.00501058 0.00476502,-0.00674119 0.00232697,-0.00173061 0.0055017,-0.00259591 0.00952419,-0.00259591 0.00294671,0 0.00556601,0.000450192 0.00785205,0.00135642 0.00229189,0.000912078 0.0040225,0.00247898 0.00519767,0.00470071 0.000660672,0.00123949 0.0010524,0.00247898 0.00117518,0.00371262 0.00012278,0.00123949 0.000187093,0.0026193 0.000187093,0.00414528l0 0.0204107 -0.00736093 0 0 -0.00686397 0.0010524 0.00142074c-0.00163122,0.00224511 -0.00338521,0.00386464 -0.00526783,0.00486441 -0.00188847,0.000999777 -0.00427975,0.00150844 -0.00716799,0.00150844zm0.00179492 -0.00661841c0.00154936,0 0.00285901,-0.000280639 0.00391726,-0.000824378 0.00106409,-0.000549585 0.00190601,-0.00116933 0.00253745,-0.00186508 0.000625592,-0.000701598 0.0010524,-0.00129211 0.00128042,-0.00176569 0.000432652,-0.000906231 0.000689905,-0.00197032 0.000760065,-0.00317473 7.01598e-005,-0.00120441 0.00010524,-0.00220419 0.00010524,-0.00301103l0.00247313 0.000619745c-0.00249652,0.000409266 -0.00451361,0.000754218 -0.00606298,0.00102901 -0.00154352,0.000280639 -0.0027947,0.000537892 -0.00374186,0.000765911 -0.000947157,0.000228019 -0.00178323,0.000473579 -0.00250237,0.000742525 -0.000824378,0.000327412 -0.00148505,0.000678212 -0.00199371,0.00105824 -0.000502812,0.000385879 -0.000876998,0.000806838 -0.00111086,0.00125703 -0.000239713,0.000456039 -0.000362492,0.000958851 -0.000362492,0.00152013 0,0.000760065 0.000198786,0.00140904 0.000578818,0.00195863 0.000380032,0.000543739 0.000917924,0.000964697 0.00161952,0.00125703 0.000701598,0.000286486 0.00153182,0.000432652 0.00250237,0.000432652z"/>
   <path id="1234" class="fil3" d="M0.173803 0.349033c-0.00230943,0.000432652 -0.00456623,0.000619745 -0.00678212,0.000567125 -0.00221588,-5.26199e-005 -0.0041979,-0.000444345 -0.0059402,-0.00117518 -0.0017423,-0.000730831 -0.00306949,-0.00190601 -0.00397572,-0.00353722 -0.000824378,-0.00152598 -0.00125703,-0.00308119 -0.00129796,-0.00465978 -4.09266e-005,-0.0015786 -6.43132e-005,-0.00336182 -6.43132e-005,-0.00536138l0 -0.0285141 0.00841333 0 0 0.028023c0,0.00129796 1.754e-005,0.00246144 5.26199e-005,0.00350214 2.92333e-005,0.0010407 0.000233866,0.00187677 0.000625592,0.00249652 0.000742525,0.00117518 0.00192939,0.00181246 0.00355476,0.0019177 0.00163122,0.00010524 0.00343783,1.754e-005 0.005414,-0.000245559l0 0.00698675zm-0.0237491 -0.0269063l0 -0.00649563 0.0237491 0 0 0.00649563 -0.0237491 0z"/>
   <polygon id="12345" class="fil3" points="0.1936,0.349033 0.1936,0.304499 0.202008,0.304499 0.202008,0.325033 0.218957,0.304499 0.229224,0.304499 0.210608,0.326459 0.230399,0.349033 0.219758,0.349033 0.202008,0.328745 0.202008,0.349033 "/>
   <path id="123456" class="fil3" d="M0.244004 0.349963c-0.00239128,0 -0.00440837,-0.000467732 -0.00606882,-0.00138566 -0.00166045,-0.000917924 -0.00291748,-0.00213987 -0.00377109,-0.00367754 -0.000859458,-0.00153767 -0.00129211,-0.00322735 -0.00129211,-0.00508074 0,-0.00154936 0.000239713,-0.00295841 0.000713291,-0.00423882 0.000473579,-0.00128042 0.00124534,-0.00241467 0.00230943,-0.00339106 0.00105824,-0.000982237 0.00248483,-0.00179492 0.0042739,-0.00245559 0.00123949,-0.000450192 0.00271285,-0.000853611 0.00442591,-0.00120441 0.00171307,-0.000350799 0.00364831,-0.000689905 0.00581157,-0.00101147 0.00216911,-0.000315719 0.00454869,-0.000666518 0.00714461,-0.00105824l-0.00302857 0.0016663c0,-0.00197617 -0.000473579,-0.00343198 -0.00142658,-0.0043616 -0.000947157,-0.000923771 -0.0025316,-0.0013915 -0.00475917,-0.0013915 -0.00123949,0 -0.00252575,0.000304026 -0.00386464,0.000900384 -0.00133888,0.000596358 -0.00228019,0.00166045 -0.00281809,0.00318642l-0.00760649 -0.00241467c0.000847764,-0.00275962 0.00243221,-0.00501058 0.00476502,-0.00674119 0.00232697,-0.00173061 0.0055017,-0.00259591 0.00952419,-0.00259591 0.00294671,0 0.00556601,0.000450192 0.00785205,0.00135642 0.00229189,0.000912078 0.0040225,0.00247898 0.00519767,0.00470071 0.000660672,0.00123949 0.0010524,0.00247898 0.00117518,0.00371262 0.00012278,0.00123949 0.000187093,0.0026193 0.000187093,0.00414528l0 0.0204107 -0.00736093 0 0 -0.00686397 0.0010524 0.00142074c-0.00163122,0.00224511 -0.00338521,0.00386464 -0.00526783,0.00486441 -0.00188847,0.000999777 -0.00427975,0.00150844 -0.00716799,0.00150844zm0.00179492 -0.00661841c0.00154936,0 0.00285901,-0.000280639 0.00391726,-0.000824378 0.00106409,-0.000549585 0.00190601,-0.00116933 0.00253745,-0.00186508 0.000625592,-0.000701598 0.0010524,-0.00129211 0.00128042,-0.00176569 0.000432652,-0.000906231 0.000689905,-0.00197032 0.000760065,-0.00317473 7.01598e-005,-0.00120441 0.00010524,-0.00220419 0.00010524,-0.00301103l0.00247313 0.000619745c-0.00249652,0.000409266 -0.00451361,0.000754218 -0.00606298,0.00102901 -0.00154352,0.000280639 -0.0027947,0.000537892 -0.00374186,0.000765911 -0.000947157,0.000228019 -0.00178323,0.000473579 -0.00250237,0.000742525 -0.000824378,0.000327412 -0.00148505,0.000678212 -0.00199371,0.00105824 -0.000502812,0.000385879 -0.000876998,0.000806838 -0.00111086,0.00125703 -0.000239713,0.000456039 -0.000362492,0.000958851 -0.000362492,0.00152013 0,0.000760065 0.000198786,0.00140904 0.000578818,0.00195863 0.000380032,0.000543739 0.000917924,0.000964697 0.00161952,0.00125703 0.000701598,0.000286486 0.00153182,0.000432652 0.00250237,0.000432652z"/>
   <path id="1234567" class="fil3" d="M0.270793 0.349033l0 -0.0334019 0.0074194 0 0 0.00816777 -0.000806838 -0.0010524c0.000438499,-0.00115764 0.00101147,-0.00220419 0.00173646,-0.00315719 0.000719138,-0.000947157 0.00160783,-0.00173061 0.00266023,-0.00235035 0.000800991,-0.000491119 0.00167799,-0.000882844 0.00262515,-0.00116348 0.000947157,-0.000274793 0.00192939,-0.000450192 0.00294087,-0.000526199 0.00100562,-7.01598e-005 0.00201709,-4.09266e-005 0.00302857,8.18531e-005l0 0.0078579c-0.000929617,-0.000286486 -0.00199955,-0.000391726 -0.00322735,-0.000298179 -0.0012278,9.35464e-005 -0.00233866,0.000380032 -0.00332674,0.000853611 -0.000993931,0.000456039 -0.00182416,0.0010524 -0.00250821,0.00180662 -0.000678212,0.000748371 -0.00119272,0.00163706 -0.00154352,0.00266023 -0.000350799,0.00101732 -0.000526199,0.00217495 -0.000526199,0.00344952l0 0.0170722 -0.0084718 0z"/>
   <path id="12345678" class="fil3" d="M0.296893 0.310995l0 -0.00742525 0.00841333 0 0 0.00742525 -0.00841333 0zm0 0.0380383l0 -0.0334019 0.00841333 0 0 0.0334019 -0.00841333 0z"/>
   <path id="123456789" class="fil3" d="M0.314585 0.349033l0 -0.0334019 0.0074194 0 0 0.00816777 -0.000806838 -0.0010524c0.000438499,-0.00115764 0.00101147,-0.00220419 0.00173646,-0.00315719 0.000719138,-0.000947157 0.00160783,-0.00173061 0.00266023,-0.00235035 0.000800991,-0.000491119 0.00167799,-0.000882844 0.00262515,-0.00116348 0.000947157,-0.000274793 0.00192939,-0.000450192 0.00294087,-0.000526199 0.00100562,-7.01598e-005 0.00201709,-4.09266e-005 0.00302857,8.18531e-005l0 0.0078579c-0.000929617,-0.000286486 -0.00199955,-0.000391726 -0.00322735,-0.000298179 -0.0012278,9.35464e-005 -0.00233866,0.000380032 -0.00332674,0.000853611 -0.000993931,0.000456039 -0.00182416,0.0010524 -0.00250821,0.00180662 -0.000678212,0.000748371 -0.00119272,0.00163706 -0.00154352,0.00266023 -0.000350799,0.00101732 -0.000526199,0.00217495 -0.000526199,0.00344952l0 0.0170722 -0.0084718 0z"/>
   <path id="12345678910" class="fil3" d="M0.365983 0.349963c-0.00306949,0 -0.00575895,-0.000777605 -0.00806838,-0.00232112 -0.00230943,-0.00154936 -0.00410435,-0.00364831 -0.00539061,-0.00630854 -0.00129211,-0.00266023 -0.00194109,-0.00565956 -0.00194109,-0.008998 0,-0.00340275 0.000660672,-0.00643716 0.00197032,-0.0090857 0.00130965,-0.00264853 0.0031455,-0.00472994 0.00551339,-0.00625592 0.00237374,-0.00152598 0.00515675,-0.00228604 0.00834902,-0.00228604 0.00317473,0 0.00584665,0.000771758 0.00800991,0.00231527 0.00216911,0.00154936 0.00380617,0.00365416 0.00491703,0.00630854 0.00111671,0.00266023 0.00167214,0.00565956 0.00167214,0.00900384 0,0.00333844 -0.000555432,0.00633777 -0.00167799,0.008998 -0.0011284,0.00266023 -0.00280639,0.00475917 -0.00503397,0.00630854 -0.00222757,0.00154352 -0.00499889,0.00232112 -0.00831978,0.00232112zm0.00136227 -0.00748371c0.00187677,0 0.00337936,-0.000426806 0.00450777,-0.00126872 0.00112256,-0.000847764 0.00192355,-0.00203463 0.00242051,-0.00356061 0.000496965,-0.00152013 0.000742525,-0.00329751 0.000742525,-0.00531461 0,-0.00202294 -0.000245559,-0.00379448 -0.000742525,-0.00532045 -0.000496965,-0.00152598 -0.00128042,-0.00271285 -0.00236205,-0.00355476 -0.00108163,-0.000847764 -0.00250237,-0.00126872 -0.00425636,-0.00126872 -0.00187677,0 -0.00341444,0.000450192 -0.00461885,0.00136812 -0.00120441,0.000917924 -0.00210479,0.00214572 -0.00267777,0.00368339 -0.000578818,0.00153182 -0.000865304,0.0032332 -0.000865304,0.00509243 0,0.00187677 0.000274793,0.0035723 0.000830224,0.00510997 0.000561278,0.00153767 0.00141489,0.00276547 0.00256668,0.0036717 0.00115764,0.000906231 0.00264269,0.00136227 0.00445515,0.00136227zm0.00767081 0.0065541l0 -0.0228838 -0.0010524 0 0 -0.0216501 0.0084718 0 0 0.0445339 -0.0074194 0z"/>
   <path id="1234567891011" class="fil3" d="M0.400373 0.349963c-0.00239128,0 -0.00440837,-0.000467732 -0.00606882,-0.00138566 -0.00166045,-0.000917924 -0.00291748,-0.00213987 -0.00377109,-0.00367754 -0.000859458,-0.00153767 -0.00129211,-0.00322735 -0.00129211,-0.00508074 0,-0.00154936 0.000239713,-0.00295841 0.000713291,-0.00423882 0.000473579,-0.00128042 0.00124534,-0.00241467 0.00230943,-0.00339106 0.00105824,-0.000982237 0.00248483,-0.00179492 0.0042739,-0.00245559 0.00123949,-0.000450192 0.00271285,-0.000853611 0.00442591,-0.00120441 0.00171307,-0.000350799 0.00364831,-0.000689905 0.00581157,-0.00101147 0.00216911,-0.000315719 0.00454869,-0.000666518 0.00714461,-0.00105824l-0.00302857 0.0016663c0,-0.00197617 -0.000473579,-0.00343198 -0.00142658,-0.0043616 -0.000947157,-0.000923771 -0.0025316,-0.0013915 -0.00475917,-0.0013915 -0.00123949,0 -0.00252575,0.000304026 -0.00386464,0.000900384 -0.00133888,0.000596358 -0.00228019,0.00166045 -0.00281809,0.00318642l-0.00760649 -0.00241467c0.000847764,-0.00275962 0.00243221,-0.00501058 0.00476502,-0.00674119 0.00232697,-0.00173061 0.0055017,-0.00259591 0.00952419,-0.00259591 0.00294671,0 0.00556601,0.000450192 0.00785205,0.00135642 0.00229189,0.000912078 0.0040225,0.00247898 0.00519767,0.00470071 0.000660672,0.00123949 0.0010524,0.00247898 0.00117518,0.00371262 0.00012278,0.00123949 0.000187093,0.0026193 0.000187093,0.00414528l0 0.0204107 -0.00736093 0 0 -0.00686397 0.0010524 0.00142074c-0.00163122,0.00224511 -0.00338521,0.00386464 -0.00526783,0.00486441 -0.00188847,0.000999777 -0.00427975,0.00150844 -0.00716799,0.00150844zm0.00179492 -0.00661841c0.00154936,0 0.00285901,-0.000280639 0.00391726,-0.000824378 0.00106409,-0.000549585 0.00190601,-0.00116933 0.00253745,-0.00186508 0.000625592,-0.000701598 0.0010524,-0.00129211 0.00128042,-0.00176569 0.000432652,-0.000906231 0.000689905,-0.00197032 0.000760065,-0.00317473 7.01598e-005,-0.00120441 0.00010524,-0.00220419 0.00010524,-0.00301103l0.00247313 0.000619745c-0.00249652,0.000409266 -0.00451361,0.000754218 -0.00606298,0.00102901 -0.00154352,0.000280639 -0.0027947,0.000537892 -0.00374186,0.000765911 -0.000947157,0.000228019 -0.00178323,0.000473579 -0.00250237,0.000742525 -0.000824378,0.000327412 -0.00148505,0.000678212 -0.00199371,0.00105824 -0.000502812,0.000385879 -0.000876998,0.000806838 -0.00111086,0.00125703 -0.000239713,0.000456039 -0.000362492,0.000958851 -0.000362492,0.00152013 0,0.000760065 0.000198786,0.00140904 0.000578818,0.00195863 0.000380032,0.000543739 0.000917924,0.000964697 0.00161952,0.00125703 0.000701598,0.000286486 0.00153182,0.000432652 0.00250237,0.000432652z"/>
   <path id="123456789101112" class="fil3" d="M0.449923 0.349033l0 -0.0157743c0,-0.000760065 -4.09266e-005,-0.0017423 -0.000128626,-0.00292333 -8.18531e-005,-0.00118687 -0.000339106,-0.00237374 -0.000771758,-0.00356646 -0.000432652,-0.00119856 -0.00113425,-0.00219834 -0.00211064,-0.00300518 -0.000982237,-0.000800991 -0.00237374,-0.00120441 -0.00416866,-0.00120441 -0.000719138,0 -0.0014909,0.000116933 -0.00231527,0.000339106 -0.000824378,0.000228019 -0.00160198,0.000660672 -0.00232112,0.00130965 -0.000719138,0.000648978 -0.00130965,0.00160783 -0.00177154,0.00286486 -0.000467732,0.00126288 -0.000701598,0.00292917 -0.000701598,0.00501058l-0.00482349 -0.00228604c0,-0.00263684 0.000532045,-0.00511582 0.00160783,-0.00742525 0.00106994,-0.00230358 0.00268946,-0.00417451 0.00484103,-0.00559524 0.00215741,-0.00142074 0.00487026,-0.00213403 0.00814438,-0.00213403 0.0026193,0 0.00475333,0.000444345 0.00640208,0.00133304 0.00164876,0.000882844 0.00294087,0.0020054 0.00385879,0.00336767 0.000917924,0.00136227 0.0015669,0.00277131 0.00195863,0.00425052 0.000391726,0.00147336 0.000625592,0.00282393 0.000707445,0.00404004 8.18531e-005,0.0012161 0.000128626,0.00209895 0.000128626,0.00266023l0 0.0187385 -0.00853611 0zm-0.0228253 0l0 -0.0334019 0.00748371 0 0 0.0110736 0.0010524 0 0 0.0223284 -0.00853611 0z"/>
   <polygon id="12345678910111213" class="fil3" points="0.489195,0.349033 0.489195,0.312357 0.475157,0.312357 0.475157,0.304499 0.511646,0.304499 0.511646,0.312357 0.497608,0.312357 0.497608,0.349033 "/>
   <path id="1234567891011121314" class="fil3" d="M0.516598 0.349033l0 -0.0334019 0.0074194 0 0 0.00816777 -0.000806838 -0.0010524c0.000438499,-0.00115764 0.00101147,-0.00220419 0.00173646,-0.00315719 0.000719138,-0.000947157 0.00160783,-0.00173061 0.00266023,-0.00235035 0.000800991,-0.000491119 0.00167799,-0.000882844 0.00262515,-0.00116348 0.000947157,-0.000274793 0.00192939,-0.000450192 0.00294087,-0.000526199 0.00100562,-7.01598e-005 0.00201709,-4.09266e-005 0.00302857,8.18531e-005l0 0.0078579c-0.000929617,-0.000286486 -0.00199955,-0.000391726 -0.00322735,-0.000298179 -0.0012278,9.35464e-005 -0.00233866,0.000380032 -0.00332674,0.000853611 -0.000993931,0.000456039 -0.00182416,0.0010524 -0.00250821,0.00180662 -0.000678212,0.000748371 -0.00119272,0.00163706 -0.00154352,0.00266023 -0.000350799,0.00101732 -0.000526199,0.00217495 -0.000526199,0.00344952l0 0.0170722 -0.0084718 0z"/>
   <path id="123456789101112131415" class="fil3" d="M0.551357 0.349963c-0.00239128,0 -0.00440837,-0.000467732 -0.00606882,-0.00138566 -0.00166045,-0.000917924 -0.00291748,-0.00213987 -0.00377109,-0.00367754 -0.000859458,-0.00153767 -0.00129211,-0.00322735 -0.00129211,-0.00508074 0,-0.00154936 0.000239713,-0.00295841 0.000713291,-0.00423882 0.000473579,-0.00128042 0.00124534,-0.00241467 0.00230943,-0.00339106 0.00105824,-0.000982237 0.00248483,-0.00179492 0.0042739,-0.00245559 0.00123949,-0.000450192 0.00271285,-0.000853611 0.00442591,-0.00120441 0.00171307,-0.000350799 0.00364831,-0.000689905 0.00581157,-0.00101147 0.00216911,-0.000315719 0.00454869,-0.000666518 0.00714461,-0.00105824l-0.00302857 0.0016663c0,-0.00197617 -0.000473579,-0.00343198 -0.00142658,-0.0043616 -0.000947157,-0.000923771 -0.0025316,-0.0013915 -0.00475917,-0.0013915 -0.00123949,0 -0.00252575,0.000304026 -0.00386464,0.000900384 -0.00133888,0.000596358 -0.00228019,0.00166045 -0.00281809,0.00318642l-0.00760649 -0.00241467c0.000847764,-0.00275962 0.00243221,-0.00501058 0.00476502,-0.00674119 0.00232697,-0.00173061 0.0055017,-0.00259591 0.00952419,-0.00259591 0.00294671,0 0.00556601,0.000450192 0.00785205,0.00135642 0.00229189,0.000912078 0.0040225,0.00247898 0.00519767,0.00470071 0.000660672,0.00123949 0.0010524,0.00247898 0.00117518,0.00371262 0.00012278,0.00123949 0.000187093,0.0026193 0.000187093,0.00414528l0 0.0204107 -0.00736093 0 0 -0.00686397 0.0010524 0.00142074c-0.00163122,0.00224511 -0.00338521,0.00386464 -0.00526783,0.00486441 -0.00188847,0.000999777 -0.00427975,0.00150844 -0.00716799,0.00150844zm0.00179492 -0.00661841c0.00154936,0 0.00285901,-0.000280639 0.00391726,-0.000824378 0.00106409,-0.000549585 0.00190601,-0.00116933 0.00253745,-0.00186508 0.000625592,-0.000701598 0.0010524,-0.00129211 0.00128042,-0.00176569 0.000432652,-0.000906231 0.000689905,-0.00197032 0.000760065,-0.00317473 7.01598e-005,-0.00120441 0.00010524,-0.00220419 0.00010524,-0.00301103l0.00247313 0.000619745c-0.00249652,0.000409266 -0.00451361,0.000754218 -0.00606298,0.00102901 -0.00154352,0.000280639 -0.0027947,0.000537892 -0.00374186,0.000765911 -0.000947157,0.000228019 -0.00178323,0.000473579 -0.00250237,0.000742525 -0.000824378,0.000327412 -0.00148505,0.000678212 -0.00199371,0.00105824 -0.000502812,0.000385879 -0.000876998,0.000806838 -0.00111086,0.00125703 -0.000239713,0.000456039 -0.000362492,0.000958851 -0.000362492,0.00152013 0,0.000760065 0.000198786,0.00140904 0.000578818,0.00195863 0.000380032,0.000543739 0.000917924,0.000964697 0.00161952,0.00125703 0.000701598,0.000286486 0.00153182,0.000432652 0.00250237,0.000432652z"/>
   <path id="12345678910111213141516" class="fil3" d="M0.592862 0.349963c-0.00346122,0 -0.00643132,-0.000777605 -0.00890445,-0.00232112 -0.00247313,-0.00154936 -0.00437329,-0.00364831 -0.00568879,-0.00630854 -0.00132134,-0.00266023 -0.00198201,-0.00565956 -0.00198201,-0.008998 0,-0.00338521 0.000689905,-0.00640208 0.00206387,-0.00906231 0.00136812,-0.00266023 0.00329751,-0.00475333 0.00579403,-0.0062793 0.00249067,-0.00152598 0.00544323,-0.00228604 0.00884014,-0.00228604 0.00394064,0 0.00724985,0.000988084 0.00992177,0.00297595 0.00266607,0.00199371 0.00436745,0.0047124 0.00510997,0.00815608l-0.00841333 0.00222757c-0.000491119,-0.00173061 -0.00135058,-0.00308119 -0.00257253,-0.00405173 -0.0012278,-0.000970544 -0.0026193,-0.00145582 -0.00416866,-0.00145582 -0.00177154,0 -0.00322735,0.000420959 -0.00435575,0.00128042 -0.00113425,0.000853611 -0.00197032,0.00201709 -0.00250821,0.0034963 -0.000537892,0.00147336 -0.000800991,0.00313965 -0.000800991,0.00499889 0,0.00290579 0.000648978,0.00525614 0.00193524,0.00705691 0.00128626,0.00180662 0.00319812,0.00271285 0.00572972,0.00271285 0.00190016,0 0.00334428,-0.000432652 0.00433237,-0.00129796 0.000988084,-0.000865304 0.00173061,-0.00210479 0.00222757,-0.00371262l0.00859458 0.00179492c-0.000947157,0.00354892 -0.00274208,0.0062793 -0.00537892,0.008197 -0.00264269,0.0019177 -0.00589927,0.00287655 -0.0097756,0.00287655z"/>
   <path id="1234567891011121314151617" class="fil3" d="M0.629731 0.349963c-0.00342614,0 -0.00643132,-0.000742525 -0.00903892,-0.00221588 -0.00261345,-0.0014792 -0.00465393,-0.00350799 -0.00612729,-0.00609221 -0.00147336,-0.00259007 -0.00221588,-0.00554847 -0.00221588,-0.00888691 0,-0.00364831 0.000724985,-0.00682304 0.00216326,-0.00952419 0.00144412,-0.00270115 0.00343783,-0.00480595 0.00596943,-0.00630269 0.00253745,-0.0014909 0.00545493,-0.00223342 0.00875244,-0.00223342 0.00350799,0 0.00648394,0.000824378 0.00893953,0.00247313 0.00245559,0.00164876 0.00426806,0.00396988 0.00544323,0.00695751 0.00117518,0.00298764 0.00158444,0.00650732 0.00123364,0.0105474l-0.00831394 0 0 -0.00309288c0,-0.00340275 -0.000537892,-0.00585834 -0.00161952,-0.00734924 -0.00108163,-0.00149674 -0.00285901,-0.00223927 -0.00530876,-0.00223927 -0.00286486,0 -0.00496965,0.000865304 -0.00632023,0.00260761 -0.00135058,0.0017423 -0.00202879,0.00432067 -0.00202879,0.00772343 0,0.00311042 0.000678212,0.00551339 0.00202879,0.00721477 0.00135058,0.00170138 0.00332674,0.00255499 0.00594604,0.00255499 0.00164876,0 0.00306365,-0.000362492 0.00423882,-0.00108163 0.00117518,-0.000719138 0.00206971,-0.00175984 0.00268946,-0.00312211l0.00841333 0.00240882c-0.00125703,0.00305195 -0.00323904,0.00542569 -0.00595189,0.00711537 -0.002707,0.00168968 -0.0056771,0.00253745 -0.00889276,0.00253745zm-0.0110736 -0.0152773l0 -0.00625007 0.0221413 0 0 0.00625007 -0.0221413 0z"/>
   <path id="123456789101112131415161718" class="fil3" d="M0.651814 0.349033l0 -0.0334019 0.0074194 0 0 0.00816777 -0.000806838 -0.0010524c0.000438499,-0.00115764 0.00101147,-0.00220419 0.00173646,-0.00315719 0.000719138,-0.000947157 0.00160783,-0.00173061 0.00266023,-0.00235035 0.000800991,-0.000491119 0.00167799,-0.000882844 0.00262515,-0.00116348 0.000947157,-0.000274793 0.00192939,-0.000450192 0.00294087,-0.000526199 0.00100562,-7.01598e-005 0.00201709,-4.09266e-005 0.00302857,8.18531e-005l0 0.0078579c-0.000929617,-0.000286486 -0.00199955,-0.000391726 -0.00322735,-0.000298179 -0.0012278,9.35464e-005 -0.00233866,0.000380032 -0.00332674,0.000853611 -0.000993931,0.000456039 -0.00182416,0.0010524 -0.00250821,0.00180662 -0.000678212,0.000748371 -0.00119272,0.00163706 -0.00154352,0.00266023 -0.000350799,0.00101732 -0.000526199,0.00217495 -0.000526199,0.00344952l0 0.0170722 -0.0084718 0z"/>
   <path id="12345678910111213141516171819" class="fil3" d="M0.706492 0.349963c-0.00329751,0 -0.00626761,-0.000590512 -0.00891614,-0.001754 -0.00264853,-0.00116348 -0.00482349,-0.00283563 -0.00652486,-0.00501058 -0.00170138,-0.00217495 -0.00278301,-0.00476502 -0.00323904,-0.0077702l0.00878167 -0.0013038c0.000619745,0.00256083 0.00190016,0.00452531 0.0038354,0.00591096 0.00194109,0.00137981 0.00414528,0.00206971 0.00661841,0.00206971 0.00137981,0 0.00272454,-0.000216326 0.0040225,-0.000648978 0.00129796,-0.000432652 0.00236789,-0.00106994 0.00320396,-0.0019177 0.000836071,-0.000841918 0.00125118,-0.00188847 0.00125118,-0.00312211 0,-0.000456039 -6.43132e-005,-0.000900384 -0.000198786,-0.00132134 -0.000134473,-0.000420959 -0.000362492,-0.000812684 -0.000672365,-0.00118687 -0.000304026,-0.000368339 -0.000742525,-0.000719138 -0.0013038,-0.00104655 -0.000567125,-0.000333259 -0.00129211,-0.000631438 -0.00215741,-0.000900384l-0.0115647 -0.00340275c-0.000865304,-0.000245559 -0.00186508,-0.000596358 -0.00301103,-0.00104655 -0.00114594,-0.000456039 -0.00225681,-0.00110502 -0.00333259,-0.00195278 -0.00106994,-0.000841918 -0.00195863,-0.00196447 -0.00266607,-0.00336182 -0.000713291,-0.0013915 -0.00107578,-0.00313965 -0.00107578,-0.00526783 0,-0.00298764 0.000754218,-0.00547247 0.00226265,-0.00744863 0.00150259,-0.00198201 0.00351384,-0.00345537 0.0060279,-0.00442591 0.00251406,-0.000964697 0.00529707,-0.00144412 0.00834902,-0.00142074 0.00307534,4.09266e-005 0.00581742,0.000567125 0.00822624,0.0015786 0.00241467,0.00101147 0.00443176,0.00247313 0.00606298,0.00440253 0.00162537,0.00192355 0.00280055,0.0042856 0.00352553,0.0070686l-0.00909154 0.00154936c-0.000333259,-0.00144412 -0.000941311,-0.00266023 -0.00182416,-0.00365416 -0.000888691,-0.000988084 -0.00194109,-0.00173646 -0.00316888,-0.00225681 -0.00122195,-0.000514505 -0.00251406,-0.000789298 -0.00385294,-0.000830224 -0.00132134,-4.67732e-005 -0.00255499,0.000128626 -0.00372432,0.000532045 -0.00116348,0.000403419 -0.00211064,0.000988084 -0.00284147,0.001754 -0.000730831,0.000760065 -0.00110502,0.00167214 -0.00110502,0.00271869 0,0.000970544 0.000298179,0.001754 0.000900384,0.00236205 0.000596358,0.000608052 0.00135058,0.00110502 0.00225681,0.00147336 0.000906231,0.000374186 0.00183585,0.000684058 0.00278301,0.000929617l0.00772927 0.00210479c0.00115764,0.000309872 0.00243221,0.000707445 0.0038354,0.0012161 0.0014032,0.000502812 0.00275377,0.00120441 0.00404004,0.00209895 0.00129211,0.000900384 0.00235035,0.00208725 0.00318642,0.00354892 0.000836071,0.00146166 0.00124534,0.0033209 0.00124534,0.00556601 0,0.00239128 -0.000491119,0.00447269 -0.0014909,0.00625592 -0.000999777,0.00178323 -0.00235035,0.00325658 -0.00404004,0.00442591 -0.00169553,0.00116348 -0.00360154,0.00204048 -0.00573556,0.0026193 -0.00213403,0.000572972 -0.00433821,0.000865304 -0.00660672,0.000865304z"/>
   <path id="1234567891011121314151617181920" class="fil3" d="M0.751213 0.349033c-0.00230943,0.000432652 -0.00456623,0.000619745 -0.00678212,0.000567125 -0.00221588,-5.26199e-005 -0.0041979,-0.000444345 -0.0059402,-0.00117518 -0.0017423,-0.000730831 -0.00306949,-0.00190601 -0.00397572,-0.00353722 -0.000824378,-0.00152598 -0.00125703,-0.00308119 -0.00129796,-0.00465978 -4.09266e-005,-0.0015786 -6.43132e-005,-0.00336182 -6.43132e-005,-0.00536138l0 -0.0285141 0.00841333 0 0 0.028023c0,0.00129796 1.754e-005,0.00246144 5.26199e-005,0.00350214 2.92333e-005,0.0010407 0.000233866,0.00187677 0.000625592,0.00249652 0.000742525,0.00117518 0.00192939,0.00181246 0.00355476,0.0019177 0.00163122,0.00010524 0.00343783,1.754e-005 0.005414,-0.000245559l0 0.00698675zm-0.0237491 -0.0269063l0 -0.00649563 0.0237491 0 0 0.00649563 -0.0237491 0z"/>
   <path id="123456789101112131415161718192021" class="fil3" d="M0.771068 0.350021c-0.0026193,0 -0.00475333,-0.000444345 -0.00640208,-0.00132719 -0.00164876,-0.000888691 -0.00292917,-0.00201125 -0.0038471,-0.00337352 -0.000917924,-0.00135642 -0.00157275,-0.00278301 -0.00196447,-0.00425636 -0.000391726,-0.00147336 -0.000631438,-0.00281224 -0.000713291,-0.00402834 -8.18531e-005,-0.0012161 -0.00012278,-0.00210479 -0.00012278,-0.00266023l0 -0.0187444 0.00853611 0 0 0.0157743c0,0.000760065 4.09266e-005,0.00173061 0.00012278,0.00291748 8.18531e-005,0.00118687 0.000339106,0.00237959 0.000771758,0.00357815 0.000432652,0.00119272 0.00114594,0.00219249 0.00212233,0.00299933 0.000982237,0.000800991 0.00236205,0.00120441 0.00415697,0.00120441 0.000719138,0 0.0014909,-0.000111086 0.00232112,-0.000339106 0.000824378,-0.000228019 0.00159614,-0.000672365 0.00231527,-0.00132134 0.000724985,-0.000648978 0.00132134,-0.00160783 0.00178323,-0.00287655 0.000467732,-0.00126872 0.000689905,-0.00292333 0.000689905,-0.00498719l0.00482933 0.00228604c0,0.00264269 -0.000537892,0.00511582 -0.00161368,0.00742525 -0.00106994,0.00230943 -0.00267777,0.00417451 -0.00482933,0.00559524 -0.00215741,0.00142658 -0.00487611,0.00213403 -0.00815608,0.00213403zm0.0108222 -0.000988084l0 -0.0110736 -0.0010524 0 0 -0.0223284 0.00847764 0 0 0.0334019 -0.00742525 0z"/>
   <path id="12345678910111213141516171819202122" class="fil3" d="M0.811515 0.349963c-0.00306949,0 -0.00575895,-0.000777605 -0.00806838,-0.00232112 -0.00230943,-0.00154936 -0.00410435,-0.00364831 -0.00539061,-0.00630854 -0.00129211,-0.00266023 -0.00194109,-0.00565956 -0.00194109,-0.008998 0,-0.00340275 0.000660672,-0.00643716 0.00197032,-0.0090857 0.00130965,-0.00264853 0.0031455,-0.00472994 0.00551339,-0.00625592 0.00237374,-0.00152598 0.00515675,-0.00228604 0.00834902,-0.00228604 0.00317473,0 0.00584665,0.000771758 0.00800991,0.00231527 0.00216911,0.00154936 0.00380617,0.00365416 0.00491703,0.00630854 0.00111671,0.00266023 0.00167214,0.00565956 0.00167214,0.00900384 0,0.00333844 -0.000555432,0.00633777 -0.00167799,0.008998 -0.0011284,0.00266023 -0.00280639,0.00475917 -0.00503397,0.00630854 -0.00222757,0.00154352 -0.00499889,0.00232112 -0.00831978,0.00232112zm0.00136227 -0.00748371c0.00187677,0 0.00337936,-0.000426806 0.00450777,-0.00126872 0.00112256,-0.000847764 0.00192355,-0.00203463 0.00242051,-0.00356061 0.000496965,-0.00152013 0.000742525,-0.00329751 0.000742525,-0.00531461 0,-0.00202294 -0.000245559,-0.00379448 -0.000742525,-0.00532045 -0.000496965,-0.00152598 -0.00128042,-0.00271285 -0.00236205,-0.00355476 -0.00108163,-0.000847764 -0.00250237,-0.00126872 -0.00425636,-0.00126872 -0.00187677,0 -0.00341444,0.000450192 -0.00461885,0.00136812 -0.00120441,0.000917924 -0.00210479,0.00214572 -0.00267777,0.00368339 -0.000578818,0.00153182 -0.000865304,0.0032332 -0.000865304,0.00509243 0,0.00187677 0.000274793,0.0035723 0.000830224,0.00510997 0.000561278,0.00153767 0.00141489,0.00276547 0.00256668,0.0036717 0.00115764,0.000906231 0.00264269,0.00136227 0.00445515,0.00136227zm0.00767081 0.0065541l0 -0.0228838 -0.0010524 0 0 -0.0216501 0.0084718 0 0 0.0445339 -0.0074194 0z"/>
   <polygon id="1234567891011121314151617181920212223" class="fil3" points="0.840895,0.363878 0.847332,0.346186 0.847455,0.351384 0.83292,0.315631 0.841637,0.315631 0.851413,0.34093 0.849431,0.34093 0.859142,0.315631 0.867555,0.315631 0.848688,0.363878 "/>
  </g>
 </g>
</svg>
