<?xml version="1.0" encoding="UTF-8"?>
<!DOCTYPE svg PUBLIC "-//W3C//DTD SVG 1.1//EN" "http://www.w3.org/Graphics/SVG/1.1/DTD/svg11.dtd">
<!-- Creator: CorelDRAW -->
<svg xmlns="http://www.w3.org/2000/svg" xml:space="preserve" width="26.0233mm" height="10.6844mm" style="shape-rendering:geometricPrecision; text-rendering:geometricPrecision; image-rendering:optimizeQuality; fill-rule:evenodd; clip-rule:evenodd"
viewBox="0 0 2.612 1.07241"
 xmlns:xlink="http://www.w3.org/1999/xlink">
 <defs>
  <style type="text/css">
   <![CDATA[
    .str1 {stroke:white;stroke-width:0.0560073;stroke-linecap:round;stroke-linejoin:round}
    .str0 {stroke:black;stroke-width:0.115036;stroke-linecap:round;stroke-linejoin:round}
    .fil0 {fill:none;fill-rule:nonzero}
    .fil3 {fill:black;fill-rule:nonzero}
    .fil1 {fill:blue;fill-rule:nonzero}
    .fil2 {fill:url(#id0);fill-rule:nonzero}
   ]]>
  </style>
  <linearGradient id="id0" gradientUnits="userSpaceOnUse" x1="1.20554" y1="0.10009" x2="1.20554" y2="0.872359">
   <stop offset="0" style="stop-color:blue"/>
   <stop offset="0.368627" style="stop-color:#0052FF"/>
   <stop offset="1" style="stop-color:#00A5FE"/>
  </linearGradient>
 </defs>
 <g id="Layer_x0020_1">
  <metadata id="CorelCorpID_0Corel-Layer"/>
  <g id="_1054073264">
   <g>
    <g>
     <path id="_454780128" class="fil0 str0" d="M0.0724582 0.790345l0 -0.718841 0.303513 0c0.00698586,0 0.016471,0.000160594 0.0282847,0.000662452 0.0118137,0.000501858 0.0223025,0.00166617 0.031617,0.0033223 0.0429289,0.00666467 0.0782095,0.020807 0.105661,0.0424371 0.0274616,0.0216301 0.0475962,0.0487504 0.0605742,0.0815318 0.012978,0.0327813 0.019462,0.0693969 0.019462,0.109656 0,0.040269 -0.006484,0.0767139 -0.0196327,0.109495 -0.0131487,0.0327813 -0.0334438,0.0600723 -0.0609054,0.0817024 -0.0274516,0.0216301 -0.0625616,0.0357724 -0.105159,0.042427 -0.00931448,0.00133494 -0.0199639,0.00233866 -0.0319483,0.00300111 -0.0119844,0.000662452 -0.0212988,0.000993678 -0.0279535,0.000993678l-0.167731 0 0 0.243612 -0.135783 0zm0.135783 -0.370401l0.161739 0c0.00698586,0 0.0146442,-0.000341263 0.022965,-0.00100372 0.0083208,-0.000662452 0.0159691,-0.00199739 0.022965,-0.00399479 0.0182977,-0.00498846 0.0324401,-0.0134799 0.042427,-0.0252936 0.00998696,-0.0118137 0.0169728,-0.0249524 0.020797,-0.039436 0.00383419,-0.0144736 0.00566095,-0.0281141 0.00566095,-0.0411021 0,-0.012978 -0.00182676,-0.0267892 -0.00566095,-0.0412627 -0.00382415,-0.0144736 -0.01081,-0.0276222 -0.020797,-0.039436 -0.00998696,-0.0118137 -0.0241293,-0.0201345 -0.042427,-0.025123 -0.00699589,-0.00199739 -0.0146442,-0.00333233 -0.022965,-0.00399479 -0.0083208,-0.000672489 -0.0159791,-0.00100372 -0.022965,-0.00100372l-0.161739 0 0 0.22165z"/>
    </g>
    <g>
     <polygon id="_4547801281" class="fil0 str0" points="0.72141,0.790345 0.72141,0.0715047 0.857193,0.0715047 0.857193,0.402972 1.13076,0.0715047 1.29649,0.0715047 0.995966,0.425926 1.31546,0.790345 1.14373,0.790345 0.857193,0.462873 0.857193,0.790345 "/>
    </g>
    <g>
     <polygon id="_45478012812" class="fil0 str0" points="1.55207,0.790345 1.55207,0.198294 1.32545,0.198294 1.32545,0.0715047 1.9145,0.0715047 1.9145,0.198294 1.68786,0.198294 1.68786,0.790345 "/>
    </g>
    <g>
     <path id="_454780128123" class="fil0 str0" d="M2.26594 0.805321c-0.0532471,0 -0.101174,-0.00948511 -0.143943,-0.0282847 -0.0427583,-0.0188096 -0.0778682,-0.0457594 -0.10533,-0.0808693 -0.0274516,-0.03511 -0.0449263,-0.0768846 -0.0522434,-0.125464l0.141775 -0.0209676c0.00997693,0.0412627 0.0306133,0.0730504 0.0618991,0.0953429 0.0312758,0.0223025 0.0668876,0.0334438 0.106825,0.0334438 0.0222925,0 0.0439326,-0.00349293 0.0649002,-0.0104788 0.0209576,-0.00698586 0.0382717,-0.017304 0.0517415,-0.0309546 0.0134799,-0.0136405 0.0201345,-0.0304427 0.0201345,-0.0504166 0,-0.00731708 -0.000993678,-0.0144736 -0.0031617,-0.0212988 -0.00215799,-0.00682526 -0.00582155,-0.0131487 -0.01081,-0.0191308 -0.0049985,-0.00599218 -0.0119844,-0.0116531 -0.0211382,-0.0169728 -0.00914384,-0.00532973 -0.020797,-0.0101576 -0.0347787,-0.0144836l-0.186691 -0.0549133c-0.0139818,-0.00398475 -0.0301215,-0.0096457 -0.0485898,-0.0169728 -0.0184684,-0.00731708 -0.0364449,-0.0177959 -0.0537489,-0.0314464 -0.017304,-0.0136405 -0.031617,-0.0317776 -0.0430995,-0.0542408 -0.0114825,-0.0224631 -0.017304,-0.0507579 -0.017304,-0.0850347 0,-0.0482586 0.012145,-0.088357 0.0364449,-0.120305 0.0242899,-0.0319483 0.05674,-0.0557463 0.0973403,-0.0713842 0.0406003,-0.0156479 0.0855266,-0.0232962 0.134779,-0.022965 0.0495936,0.000662452 0.0938574,0.00915388 0.132792,0.0254643 0.0389341,0.0163003 0.0715548,0.0399278 0.0978421,0.071043 0.0262873,0.0311252 0.0452575,0.0692262 0.0569106,0.114153l-0.146763 0.0249624c-0.00532973,-0.0232962 -0.0151461,-0.0429289 -0.029459,-0.058908 -0.0143029,-0.0159691 -0.0312758,-0.0281241 -0.0510791,-0.0364349 -0.0198033,-0.0083208 -0.0406003,-0.0128174 -0.0622404,-0.0134799 -0.0212988,-0.000672489 -0.0412627,0.00215799 -0.0600623,0.00865202 -0.0188096,0.006484 -0.0341163,0.0159691 -0.04593,0.0282847 -0.0118137,0.0123156 -0.0178059,0.0269598 -0.0178059,0.0439326 0,0.0156379 0.00482787,0.0282847 0.0144736,0.038101 0.00965574,0.00981633 0.0218007,0.0178059 0.0364449,0.0237981 0.0146442,0.00599218 0.0296196,0.0109806 0.0449263,0.0149754l0.124802 0.0339456c0.018639,0.00498846 0.0392754,0.0114825 0.0618991,0.0196327 0.0226338,0.0081602 0.0444345,0.0194721 0.0652314,0.0339456 0.020797,0.0144736 0.0379404,0.0336144 0.0514203,0.0572419 0.0134699,0.0236275 0.0201345,0.0535783 0.0201345,0.0898526 0,0.0386129 -0.00798957,0.0722173 -0.0241293,0.101004 -0.0161397,0.0287966 -0.0379404,0.0525846 -0.0652314,0.0713943 -0.027291,0.0187996 -0.058075,0.0329419 -0.0925225,0.0422564 -0.0344375,0.00932451 -0.0700493,0.0139818 -0.106655,0.0139818z"/>
    </g>
    <path id="_4547801281234" class="fil1" d="M0.0724582 0.790345l0 -0.718841 0.303513 0c0.00698586,0 0.016471,0.000160594 0.0282847,0.000662452 0.0118137,0.000501858 0.0223025,0.00166617 0.031617,0.0033223 0.0429289,0.00666467 0.0782095,0.020807 0.105661,0.0424371 0.0274616,0.0216301 0.0475962,0.0487504 0.0605742,0.0815318 0.012978,0.0327813 0.019462,0.0693969 0.019462,0.109656 0,0.040269 -0.006484,0.0767139 -0.0196327,0.109495 -0.0131487,0.0327813 -0.0334438,0.0600723 -0.0609054,0.0817024 -0.0274516,0.0216301 -0.0625616,0.0357724 -0.105159,0.042427 -0.00931448,0.00133494 -0.0199639,0.00233866 -0.0319483,0.00300111 -0.0119844,0.000662452 -0.0212988,0.000993678 -0.0279535,0.000993678l-0.167731 0 0 0.243612 -0.135783 0zm0.135783 -0.370401l0.161739 0c0.00698586,0 0.0146442,-0.000341263 0.022965,-0.00100372 0.0083208,-0.000662452 0.0159691,-0.00199739 0.022965,-0.00399479 0.0182977,-0.00498846 0.0324401,-0.0134799 0.042427,-0.0252936 0.00998696,-0.0118137 0.0169728,-0.0249524 0.020797,-0.039436 0.00383419,-0.0144736 0.00566095,-0.0281141 0.00566095,-0.0411021 0,-0.012978 -0.00182676,-0.0267892 -0.00566095,-0.0412627 -0.00382415,-0.0144736 -0.01081,-0.0276222 -0.020797,-0.039436 -0.00998696,-0.0118137 -0.0241293,-0.0201345 -0.042427,-0.025123 -0.00699589,-0.00199739 -0.0146442,-0.00333233 -0.022965,-0.00399479 -0.0083208,-0.000672489 -0.0159791,-0.00100372 -0.022965,-0.00100372l-0.161739 0 0 0.22165z"/>
    <polygon id="_45478012812345" class="fil1" points="0.72141,0.790345 0.72141,0.0715047 0.857193,0.0715047 0.857193,0.402972 1.13076,0.0715047 1.29649,0.0715047 0.995966,0.425926 1.31546,0.790345 1.14373,0.790345 0.857193,0.462873 0.857193,0.790345 "/>
    <polygon id="_454780128123456" class="fil1" points="1.55207,0.790345 1.55207,0.198294 1.32545,0.198294 1.32545,0.0715047 1.9145,0.0715047 1.9145,0.198294 1.68786,0.198294 1.68786,0.790345 "/>
    <path id="_4547801281234567" class="fil1" d="M2.26594 0.805321c-0.0532471,0 -0.101174,-0.00948511 -0.143943,-0.0282847 -0.0427583,-0.0188096 -0.0778682,-0.0457594 -0.10533,-0.0808693 -0.0274516,-0.03511 -0.0449263,-0.0768846 -0.0522434,-0.125464l0.141775 -0.0209676c0.00997693,0.0412627 0.0306133,0.0730504 0.0618991,0.0953429 0.0312758,0.0223025 0.0668876,0.0334438 0.106825,0.0334438 0.0222925,0 0.0439326,-0.00349293 0.0649002,-0.0104788 0.0209576,-0.00698586 0.0382717,-0.017304 0.0517415,-0.0309546 0.0134799,-0.0136405 0.0201345,-0.0304427 0.0201345,-0.0504166 0,-0.00731708 -0.000993678,-0.0144736 -0.0031617,-0.0212988 -0.00215799,-0.00682526 -0.00582155,-0.0131487 -0.01081,-0.0191308 -0.0049985,-0.00599218 -0.0119844,-0.0116531 -0.0211382,-0.0169728 -0.00914384,-0.00532973 -0.020797,-0.0101576 -0.0347787,-0.0144836l-0.186691 -0.0549133c-0.0139818,-0.00398475 -0.0301215,-0.0096457 -0.0485898,-0.0169728 -0.0184684,-0.00731708 -0.0364449,-0.0177959 -0.0537489,-0.0314464 -0.017304,-0.0136405 -0.031617,-0.0317776 -0.0430995,-0.0542408 -0.0114825,-0.0224631 -0.017304,-0.0507579 -0.017304,-0.0850347 0,-0.0482586 0.012145,-0.088357 0.0364449,-0.120305 0.0242899,-0.0319483 0.05674,-0.0557463 0.0973403,-0.0713842 0.0406003,-0.0156479 0.0855266,-0.0232962 0.134779,-0.022965 0.0495936,0.000662452 0.0938574,0.00915388 0.132792,0.0254643 0.0389341,0.0163003 0.0715548,0.0399278 0.0978421,0.071043 0.0262873,0.0311252 0.0452575,0.0692262 0.0569106,0.114153l-0.146763 0.0249624c-0.00532973,-0.0232962 -0.0151461,-0.0429289 -0.029459,-0.058908 -0.0143029,-0.0159691 -0.0312758,-0.0281241 -0.0510791,-0.0364349 -0.0198033,-0.0083208 -0.0406003,-0.0128174 -0.0622404,-0.0134799 -0.0212988,-0.000672489 -0.0412627,0.00215799 -0.0600623,0.00865202 -0.0188096,0.006484 -0.0341163,0.0159691 -0.04593,0.0282847 -0.0118137,0.0123156 -0.0178059,0.0269598 -0.0178059,0.0439326 0,0.0156379 0.00482787,0.0282847 0.0144736,0.038101 0.00965574,0.00981633 0.0218007,0.0178059 0.0364449,0.0237981 0.0146442,0.00599218 0.0296196,0.0109806 0.0449263,0.0149754l0.124802 0.0339456c0.018639,0.00498846 0.0392754,0.0114825 0.0618991,0.0196327 0.0226338,0.0081602 0.0444345,0.0194721 0.0652314,0.0339456 0.020797,0.0144736 0.0379404,0.0336144 0.0514203,0.0572419 0.0134699,0.0236275 0.0201345,0.0535783 0.0201345,0.0898526 0,0.0386129 -0.00798957,0.0722173 -0.0241293,0.101004 -0.0161397,0.0287966 -0.0379404,0.0525846 -0.0652314,0.0713943 -0.027291,0.0187996 -0.058075,0.0329419 -0.0925225,0.0422564 -0.0344375,0.00932451 -0.0700493,0.0139818 -0.106655,0.0139818z"/>
    <g>
     <path class="fil0 str1" d="M0.0724582 0.790345l0 -0.718841 0.303513 0c0.00698586,0 0.016471,0.000160594 0.0282847,0.000662452 0.0118137,0.000501858 0.0223025,0.00166617 0.031617,0.0033223 0.0429289,0.00666467 0.0782095,0.020807 0.105661,0.0424371 0.0274616,0.0216301 0.0475962,0.0487504 0.0605742,0.0815318 0.012978,0.0327813 0.019462,0.0693969 0.019462,0.109656 0,0.040269 -0.006484,0.0767139 -0.0196327,0.109495 -0.0131487,0.0327813 -0.0334438,0.0600723 -0.0609054,0.0817024 -0.0274516,0.0216301 -0.0625616,0.0357724 -0.105159,0.042427 -0.00931448,0.00133494 -0.0199639,0.00233866 -0.0319483,0.00300111 -0.0119844,0.000662452 -0.0212988,0.000993678 -0.0279535,0.000993678l-0.167731 0 0 0.243612 -0.135783 0zm0.135783 -0.370401l0.161739 0c0.00698586,0 0.0146442,-0.000341263 0.022965,-0.00100372 0.0083208,-0.000662452 0.0159691,-0.00199739 0.022965,-0.00399479 0.0182977,-0.00498846 0.0324401,-0.0134799 0.042427,-0.0252936 0.00998696,-0.0118137 0.0169728,-0.0249524 0.020797,-0.039436 0.00383419,-0.0144736 0.00566095,-0.0281141 0.00566095,-0.0411021 0,-0.012978 -0.00182676,-0.0267892 -0.00566095,-0.0412627 -0.00382415,-0.0144736 -0.01081,-0.0276222 -0.020797,-0.039436 -0.00998696,-0.0118137 -0.0241293,-0.0201345 -0.042427,-0.025123 -0.00699589,-0.00199739 -0.0146442,-0.00333233 -0.022965,-0.00399479 -0.0083208,-0.000672489 -0.0159791,-0.00100372 -0.022965,-0.00100372l-0.161739 0 0 0.22165z"/>
    </g>
    <g>
     <polygon id="1" class="fil0 str1" points="0.72141,0.790345 0.72141,0.0715047 0.857193,0.0715047 0.857193,0.402972 1.13076,0.0715047 1.29649,0.0715047 0.995966,0.425926 1.31546,0.790345 1.14373,0.790345 0.857193,0.462873 0.857193,0.790345 "/>
    </g>
    <g>
     <polygon id="12" class="fil0 str1" points="1.55207,0.790345 1.55207,0.198294 1.32545,0.198294 1.32545,0.0715047 1.9145,0.0715047 1.9145,0.198294 1.68786,0.198294 1.68786,0.790345 "/>
    </g>
    <g>
     <path id="123" class="fil0 str1" d="M2.26594 0.805321c-0.0532471,0 -0.101174,-0.00948511 -0.143943,-0.0282847 -0.0427583,-0.0188096 -0.0778682,-0.0457594 -0.10533,-0.0808693 -0.0274516,-0.03511 -0.0449263,-0.0768846 -0.0522434,-0.125464l0.141775 -0.0209676c0.00997693,0.0412627 0.0306133,0.0730504 0.0618991,0.0953429 0.0312758,0.0223025 0.0668876,0.0334438 0.106825,0.0334438 0.0222925,0 0.0439326,-0.00349293 0.0649002,-0.0104788 0.0209576,-0.00698586 0.0382717,-0.017304 0.0517415,-0.0309546 0.0134799,-0.0136405 0.0201345,-0.0304427 0.0201345,-0.0504166 0,-0.00731708 -0.000993678,-0.0144736 -0.0031617,-0.0212988 -0.00215799,-0.00682526 -0.00582155,-0.0131487 -0.01081,-0.0191308 -0.0049985,-0.00599218 -0.0119844,-0.0116531 -0.0211382,-0.0169728 -0.00914384,-0.00532973 -0.020797,-0.0101576 -0.0347787,-0.0144836l-0.186691 -0.0549133c-0.0139818,-0.00398475 -0.0301215,-0.0096457 -0.0485898,-0.0169728 -0.0184684,-0.00731708 -0.0364449,-0.0177959 -0.0537489,-0.0314464 -0.017304,-0.0136405 -0.031617,-0.0317776 -0.0430995,-0.0542408 -0.0114825,-0.0224631 -0.017304,-0.0507579 -0.017304,-0.0850347 0,-0.0482586 0.012145,-0.088357 0.0364449,-0.120305 0.0242899,-0.0319483 0.05674,-0.0557463 0.0973403,-0.0713842 0.0406003,-0.0156479 0.0855266,-0.0232962 0.134779,-0.022965 0.0495936,0.000662452 0.0938574,0.00915388 0.132792,0.0254643 0.0389341,0.0163003 0.0715548,0.0399278 0.0978421,0.071043 0.0262873,0.0311252 0.0452575,0.0692262 0.0569106,0.114153l-0.146763 0.0249624c-0.00532973,-0.0232962 -0.0151461,-0.0429289 -0.029459,-0.058908 -0.0143029,-0.0159691 -0.0312758,-0.0281241 -0.0510791,-0.0364349 -0.0198033,-0.0083208 -0.0406003,-0.0128174 -0.0622404,-0.0134799 -0.0212988,-0.000672489 -0.0412627,0.00215799 -0.0600623,0.00865202 -0.0188096,0.006484 -0.0341163,0.0159691 -0.04593,0.0282847 -0.0118137,0.0123156 -0.0178059,0.0269598 -0.0178059,0.0439326 0,0.0156379 0.00482787,0.0282847 0.0144736,0.038101 0.00965574,0.00981633 0.0218007,0.0178059 0.0364449,0.0237981 0.0146442,0.00599218 0.0296196,0.0109806 0.0449263,0.0149754l0.124802 0.0339456c0.018639,0.00498846 0.0392754,0.0114825 0.0618991,0.0196327 0.0226338,0.0081602 0.0444345,0.0194721 0.0652314,0.0339456 0.020797,0.0144736 0.0379404,0.0336144 0.0514203,0.0572419 0.0134699,0.0236275 0.0201345,0.0535783 0.0201345,0.0898526 0,0.0386129 -0.00798957,0.0722173 -0.0241293,0.101004 -0.0161397,0.0287966 -0.0379404,0.0525846 -0.0652314,0.0713943 -0.027291,0.0187996 -0.058075,0.0329419 -0.0925225,0.0422564 -0.0344375,0.00932451 -0.0700493,0.0139818 -0.106655,0.0139818z"/>
    </g>
    <path id="1234" class="fil2" d="M0.0724582 0.790345l0 -0.718841 0.303513 0c0.00698586,0 0.016471,0.000160594 0.0282847,0.000662452 0.0118137,0.000501858 0.0223025,0.00166617 0.031617,0.0033223 0.0429289,0.00666467 0.0782095,0.020807 0.105661,0.0424371 0.0274616,0.0216301 0.0475962,0.0487504 0.0605742,0.0815318 0.012978,0.0327813 0.019462,0.0693969 0.019462,0.109656 0,0.040269 -0.006484,0.0767139 -0.0196327,0.109495 -0.0131487,0.0327813 -0.0334438,0.0600723 -0.0609054,0.0817024 -0.0274516,0.0216301 -0.0625616,0.0357724 -0.105159,0.042427 -0.00931448,0.00133494 -0.0199639,0.00233866 -0.0319483,0.00300111 -0.0119844,0.000662452 -0.0212988,0.000993678 -0.0279535,0.000993678l-0.167731 0 0 0.243612 -0.135783 0zm0.135783 -0.370401l0.161739 0c0.00698586,0 0.0146442,-0.000341263 0.022965,-0.00100372 0.0083208,-0.000662452 0.0159691,-0.00199739 0.022965,-0.00399479 0.0182977,-0.00498846 0.0324401,-0.0134799 0.042427,-0.0252936 0.00998696,-0.0118137 0.0169728,-0.0249524 0.020797,-0.039436 0.00383419,-0.0144736 0.00566095,-0.0281141 0.00566095,-0.0411021 0,-0.012978 -0.00182676,-0.0267892 -0.00566095,-0.0412627 -0.00382415,-0.0144736 -0.01081,-0.0276222 -0.020797,-0.039436 -0.00998696,-0.0118137 -0.0241293,-0.0201345 -0.042427,-0.025123 -0.00699589,-0.00199739 -0.0146442,-0.00333233 -0.022965,-0.00399479 -0.0083208,-0.000672489 -0.0159791,-0.00100372 -0.022965,-0.00100372l-0.161739 0 0 0.22165z"/>
    <polygon id="12345" class="fil2" points="0.72141,0.790345 0.72141,0.0715047 0.857193,0.0715047 0.857193,0.402972 1.13076,0.0715047 1.29649,0.0715047 0.995966,0.425926 1.31546,0.790345 1.14373,0.790345 0.857193,0.462873 0.857193,0.790345 "/>
    <polygon id="123456" class="fil2" points="1.55207,0.790345 1.55207,0.198294 1.32545,0.198294 1.32545,0.0715047 1.9145,0.0715047 1.9145,0.198294 1.68786,0.198294 1.68786,0.790345 "/>
    <path id="1234567" class="fil2" d="M2.26594 0.805321c-0.0532471,0 -0.101174,-0.00948511 -0.143943,-0.0282847 -0.0427583,-0.0188096 -0.0778682,-0.0457594 -0.10533,-0.0808693 -0.0274516,-0.03511 -0.0449263,-0.0768846 -0.0522434,-0.125464l0.141775 -0.0209676c0.00997693,0.0412627 0.0306133,0.0730504 0.0618991,0.0953429 0.0312758,0.0223025 0.0668876,0.0334438 0.106825,0.0334438 0.0222925,0 0.0439326,-0.00349293 0.0649002,-0.0104788 0.0209576,-0.00698586 0.0382717,-0.017304 0.0517415,-0.0309546 0.0134799,-0.0136405 0.0201345,-0.0304427 0.0201345,-0.0504166 0,-0.00731708 -0.000993678,-0.0144736 -0.0031617,-0.0212988 -0.00215799,-0.00682526 -0.00582155,-0.0131487 -0.01081,-0.0191308 -0.0049985,-0.00599218 -0.0119844,-0.0116531 -0.0211382,-0.0169728 -0.00914384,-0.00532973 -0.020797,-0.0101576 -0.0347787,-0.0144836l-0.186691 -0.0549133c-0.0139818,-0.00398475 -0.0301215,-0.0096457 -0.0485898,-0.0169728 -0.0184684,-0.00731708 -0.0364449,-0.0177959 -0.0537489,-0.0314464 -0.017304,-0.0136405 -0.031617,-0.0317776 -0.0430995,-0.0542408 -0.0114825,-0.0224631 -0.017304,-0.0507579 -0.017304,-0.0850347 0,-0.0482586 0.012145,-0.088357 0.0364449,-0.120305 0.0242899,-0.0319483 0.05674,-0.0557463 0.0973403,-0.0713842 0.0406003,-0.0156479 0.0855266,-0.0232962 0.134779,-0.022965 0.0495936,0.000662452 0.0938574,0.00915388 0.132792,0.0254643 0.0389341,0.0163003 0.0715548,0.0399278 0.0978421,0.071043 0.0262873,0.0311252 0.0452575,0.0692262 0.0569106,0.114153l-0.146763 0.0249624c-0.00532973,-0.0232962 -0.0151461,-0.0429289 -0.029459,-0.058908 -0.0143029,-0.0159691 -0.0312758,-0.0281241 -0.0510791,-0.0364349 -0.0198033,-0.0083208 -0.0406003,-0.0128174 -0.0622404,-0.0134799 -0.0212988,-0.000672489 -0.0412627,0.00215799 -0.0600623,0.00865202 -0.0188096,0.006484 -0.0341163,0.0159691 -0.04593,0.0282847 -0.0118137,0.0123156 -0.0178059,0.0269598 -0.0178059,0.0439326 0,0.0156379 0.00482787,0.0282847 0.0144736,0.038101 0.00965574,0.00981633 0.0218007,0.0178059 0.0364449,0.0237981 0.0146442,0.00599218 0.0296196,0.0109806 0.0449263,0.0149754l0.124802 0.0339456c0.018639,0.00498846 0.0392754,0.0114825 0.0618991,0.0196327 0.0226338,0.0081602 0.0444345,0.0194721 0.0652314,0.0339456 0.020797,0.0144736 0.0379404,0.0336144 0.0514203,0.0572419 0.0134699,0.0236275 0.0201345,0.0535783 0.0201345,0.0898526 0,0.0386129 -0.00798957,0.0722173 -0.0241293,0.101004 -0.0161397,0.0287966 -0.0379404,0.0525846 -0.0652314,0.0713943 -0.027291,0.0187996 -0.058075,0.0329419 -0.0925225,0.0422564 -0.0344375,0.00932451 -0.0700493,0.0139818 -0.106655,0.0139818z"/>
   </g>
   <path class="fil3" d="M0.0127572 1.02867l0 -0.131236 0.0554151 0c0.00127472,0 0.00300111,3.01115e-005 0.0051591,0.000120446 0.00215799,9.03344e-005 0.00407508,0.000301115 0.00577136,0.000602229 0.00783901,0.00122453 0.0142829,0.00380408 0.0192914,0.00774868 0.00501858,0.00395464 0.00869217,0.00890295 0.0110609,0.0148851 0.00236877,0.00599218 0.00355315,0.0126669 0.00355315,0.0200241 0,0.00734719 -0.00118438,0.0140018 -0.00358326,0.019984 -0.00239888,0.00599218 -0.00610259,0.0109706 -0.0111212,0.0149252 -0.00500854,0.0039446 -0.0114223,0.00652415 -0.0192011,0.00773864 -0.00169628,0.000250929 -0.00364349,0.000431597 -0.00583158,0.000552043 -0.0021881,0.000120446 -0.00388438,0.000180669 -0.00509887,0.000180669l-0.0306233 0 0 0.0444746 -0.0247918 0zm0.0247918 -0.0676203l0.0295293 0c0.00127472,0 0.00266988,-6.02229e-005 0.00419553,-0.000190706 0.00151561,-0.000120446 0.00291077,-0.000361337 0.00418549,-0.000722675 0.00334237,-0.000913381 0.00592192,-0.0024591 0.00774868,-0.00461709 0.00182676,-0.00215799 0.00310148,-0.00455687 0.00379404,-0.00720667 0.000702601,-0.00263977 0.00103383,-0.00512898 0.00103383,-0.00749775 0,-0.00236877 -0.000331226,-0.00488809 -0.00103383,-0.0075379 -0.000692563,-0.00263977 -0.00196728,-0.00503865 -0.00379404,-0.00719664 -0.00182676,-0.00215799 -0.00440631,-0.0036736 -0.00774868,-0.00458698 -0.00127472,-0.000361337 -0.00266988,-0.000612266 -0.00418549,-0.000732712 -0.00152565,-0.000120446 -0.00292081,-0.000180669 -0.00419553,-0.000180669l-0.0295293 0 0 0.0404698z"/>
   <path id="1" class="fil3" d="M0.167871 1.03159c-0.00770853,0 -0.0140018,-0.00131487 -0.0188598,-0.00392453 -0.00485798,-0.00260966 -0.00863195,-0.00592192 -0.0113319,-0.00993678 -0.00271003,-0.00400482 -0.0046472,-0.00820035 -0.00580147,-0.0125464 -0.00115427,-0.00433605 -0.00185687,-0.00829069 -0.00209776,-0.0118739 -0.000240892,-0.00358326 -0.000361337,-0.00619292 -0.000361337,-0.00783901l0 -0.0552244 0.0251531 0 0 0.046472c0,0.00224832 0.000120446,0.00510891 0.000361337,0.00860184 0.000240892,0.00349293 0.00100372,0.00701597 0.00227843,0.010539 0.00127472,0.00352304 0.00337248,0.00647396 0.00625314,0.00884273 0.0028907,0.00236877 0.00696578,0.00355315 0.0122453,0.00355315 0.00212788,0 0.00440631,-0.000331226 0.0068353,-0.00100372 0.00242899,-0.000662452 0.00470742,-0.00197732 0.0068353,-0.00388438 0.00212788,-0.0019171 0.00389441,-0.00473754 0.00525947,-0.00848139 0.00136505,-0.00373382 0.00203754,-0.00862191 0.00203754,-0.0147044l0.0142126 0.00674497c0,0.00777879 -0.00157583,0.0150758 -0.00473754,0.021881 -0.0031617,0.00680519 -0.00789924,0.0122955 -0.0142528,0.016491 -0.00634348,0.00419553 -0.0143632,0.00629329 -0.0240289,0.00629329zm0.0318981 -0.00292081l0 -0.0326308 -0.00309144 0 0 -0.0657935 0.0249724 0 0 0.0984243 -0.021881 0z"/>
   <path id="12" class="fil3" d="M0.285627 1.0314c-0.0123959,0 -0.0223929,-0.00282044 -0.0300111,-0.00844124 -0.00762823,-0.0056208 -0.0122754,-0.0135502 -0.0139215,-0.0238182l0.0253438 -0.00382415c0.00103383,0.00461709 0.00334237,0.00823046 0.00689552,0.0108401 0.00355315,0.0026197 0.00804979,0.00392453 0.01352,0.00392453 0.00449664,0 0.00795946,-0.000883269 0.0103885,-0.0026197 0.00242899,-0.00172639 0.00364349,-0.00412527 0.00364349,-0.00722675 0,-0.00194721 -0.00049182,-0.00352304 -0.00145539,-0.00470742 -0.000973604,-0.00118438 -0.00313159,-0.00233866 -0.00650407,-0.00349293 -0.00337248,-0.00115427 -0.00863195,-0.00267992 -0.0157383,-0.00455687 -0.00801968,-0.00206765 -0.0144334,-0.0043762 -0.0192312,-0.00692563 -0.00479776,-0.00254944 -0.00826057,-0.0056208 -0.0103885,-0.00917396 -0.00212788,-0.00355315 -0.00319181,-0.00783901 -0.00319181,-0.0128877 0,-0.00631337 0.00161598,-0.0118137 0.00483791,-0.0164609 0.00321189,-0.0046472 0.00776875,-0.00823046 0.0136305,-0.0107498 0.00587173,-0.00252936 0.0127673,-0.00377397 0.0207267,-0.00377397 0.00770853,0 0.0145438,0.00118438 0.0205059,0.00355315 0.00595203,0.00236877 0.0107799,0.00574125 0.0144535,0.0101174 0.00368363,0.0043762 0.00593196,0.00954533 0.00677508,0.0154974l-0.0253338 0.00455687c-0.00042156,-0.00364349 -0.00200743,-0.00653418 -0.00473754,-0.00866206 -0.0027301,-0.00212788 -0.00644385,-0.00337248 -0.0111212,-0.00373382 -0.00455687,-0.000301115 -0.00820035,0.000301115 -0.0109606,0.00182676 -0.00277025,0.00151561 -0.00416542,0.00370371 -0.00416542,0.00655426 0,0.00170632 0.000602229,0.00313159 0.00178661,0.00428586 0.00118438,0.00115427 0.00365352,0.00233866 0.00738734,0.00355315 0.00373382,0.0012145 0.00941485,0.00280036 0.0170732,0.00473754 0.00746764,0.00194721 0.0134899,0.00419553 0.0180167,0.00677508 0.00452675,0.00258958 0.0078089,0.00568103 0.00986652,0.0092944 0.00206765,0.00362341 0.00310148,0.00798957 0.00310148,0.0130985 0,0.0100873 -0.00364349,0.0180167 -0.0109305,0.023788 -0.00729701,0.00577136 -0.0173843,0.00865202 -0.030262,0.00865202z"/>
   <path id="123" class="fil3" d="M0.374215 1.0314c-0.00704608,0 -0.0129981,-0.00136505 -0.0178962,-0.00406505 -0.00488809,-0.00271003 -0.0085918,-0.0063234 -0.0111111,-0.0108502 -0.00251932,-0.00452675 -0.00380408,-0.00950518 -0.00380408,-0.0149754 0,-0.00455687 0.000702601,-0.00871225 0.00209776,-0.0124862 0.00139516,-0.00376393 0.0036736,-0.0071063 0.00680519,-0.009997 0.00313159,-0.00288066 0.00732712,-0.00527954 0.0126067,-0.00722675 0.00364349,-0.00133494 0.00798957,-0.00251932 0.0130383,-0.00355315 0.00503865,-0.00103383 0.0107498,-0.00203754 0.0171334,-0.00298103 0.00637359,-0.000933455 0.0133996,-0.00196728 0.0210479,-0.00312155l-0.00893306 0.0049182c0,-0.00583158 -0.00139516,-0.0101174 -0.00418549,-0.0128476 -0.00280036,-0.00274014 -0.00747768,-0.00410519 -0.014042,-0.00410519 -0.00364349,0 -0.00743753,0.000883269 -0.0113922,0.00263977 -0.0039446,0.00176654 -0.00670482,0.00489813 -0.00829069,0.00939477l-0.022423 -0.00711634c0.00249925,-0.00814013 0.00717656,-0.0147646 0.014042,-0.0198635 0.00686541,-0.00510891 0.01622,-0.00765835 0.0280639,-0.00765835 0.00869217,0 0.0164107,0.00133494 0.0231557,0.00401486 0.00674497,0.00266988 0.0118438,0.00728697 0.0153067,0.0138513 0.00194721,0.00364349 0.00310148,0.00728697 0.00346282,0.0109305 0.000371375,0.00365352 0.000552043,0.00771857 0.000552043,0.0122152l0 0.0601526 -0.0216903 0 0 -0.0202349 0.00309144 0.00419553c-0.00479776,0.00662452 -0.00995685,0.0113922 -0.0155174,0.0143431 -0.00556058,0.00294089 -0.0126067,0.00442638 -0.0211182,0.00442638zm0.00528958 -0.0195022c0.00455687,0 0.00841113,-0.000813009 0.0115427,-0.00242899 0.00313159,-0.00160594 0.0056208,-0.00343271 0.00747768,-0.00550036 0.00184684,-0.00205762 0.00309144,-0.00379404 0.00376393,-0.00518921 0.00127472,-0.00267992 0.00203754,-0.00580147 0.00224832,-0.00935462 0.00021078,-0.00356319 0.000301115,-0.00650407 0.000301115,-0.00887284l0.00728697 0.00181672c-0.00734719,0.0012145 -0.0132992,0.00221821 -0.0178561,0.00304126 -0.00455687,0.000823046 -0.00823046,0.00157583 -0.0110308,0.00224832 -0.00279033,0.000672489 -0.00524943,0.00139516 -0.00737731,0.0021881 -0.00242899,0.000973604 -0.0043762,0.00200743 -0.00587173,0.00313159 -0.0014855,0.00112416 -0.00257955,0.00236877 -0.00327211,0.00370371 -0.000702601,0.00133494 -0.00106394,0.00282044 -0.00106394,0.00446653 0,0.00224832 0.000572118,0.00415538 0.00169628,0.00577136 0.00112416,0.00160594 0.00271003,0.00285055 0.00476765,0.00370371 0.00206765,0.000853158 0.00452675,0.00127472 0.00738734,0.00127472z"/>
   <path id="1234" class="fil3" d="M0.512196 1.02867c-0.00680519,0.00127472 -0.0134598,0.00182676 -0.019994,0.00166617 -0.00652415,-0.000150557 -0.0123557,-0.00130483 -0.0174948,-0.00346282 -0.00512898,-0.00214795 -0.00905351,-0.0056208 -0.0117234,-0.0104186 -0.00242899,-0.00449664 -0.00370371,-0.00908362 -0.00383419,-0.0137308 -0.000120446,-0.0046472 -0.000180669,-0.00989663 -0.000180669,-0.0157985l0 -0.084021 0.0247918 0 0 0.0825656c0,0.00382415 6.02229e-005,0.00725686 0.000150557,0.0103282 9.03344e-005,0.00307137 0.000702601,0.00553047 0.00185687,0.00735723 0.0021881,0.00346282 0.00568103,0.00533976 0.0104788,0.00565092 0.00479776,0.000301115 0.0101174,6.02229e-005 0.015949,-0.000732712l0 0.0205962zm-0.0699891 -0.0792935l0 -0.0191308 0.0699891 0 0 0.0191308 -0.0699891 0z"/>
   <polygon id="12345" class="fil3" points="0.570522,1.02867 0.570522,0.897432 0.595313,0.897432 0.595313,0.957946 0.645258,0.897432 0.67551,0.897432 0.620647,0.962141 0.678973,1.02867 0.647627,1.02867 0.595313,0.968886 0.595313,1.02867 "/>
   <path id="123456" class="fil3" d="M0.719071 1.0314c-0.00704608,0 -0.0129981,-0.00136505 -0.0178962,-0.00406505 -0.00488809,-0.00271003 -0.0085918,-0.0063234 -0.0111111,-0.0108502 -0.00251932,-0.00452675 -0.00380408,-0.00950518 -0.00380408,-0.0149754 0,-0.00455687 0.000702601,-0.00871225 0.00209776,-0.0124862 0.00139516,-0.00376393 0.0036736,-0.0071063 0.00680519,-0.009997 0.00313159,-0.00288066 0.00732712,-0.00527954 0.0126067,-0.00722675 0.00364349,-0.00133494 0.00798957,-0.00251932 0.0130383,-0.00355315 0.00503865,-0.00103383 0.0107498,-0.00203754 0.0171334,-0.00298103 0.00637359,-0.000933455 0.0133996,-0.00196728 0.0210479,-0.00312155l-0.00893306 0.0049182c0,-0.00583158 -0.00139516,-0.0101174 -0.00418549,-0.0128476 -0.00280036,-0.00274014 -0.00747768,-0.00410519 -0.014042,-0.00410519 -0.00364349,0 -0.00743753,0.000883269 -0.0113922,0.00263977 -0.0039446,0.00176654 -0.00670482,0.00489813 -0.00829069,0.00939477l-0.022423 -0.00711634c0.00249925,-0.00814013 0.00717656,-0.0147646 0.014042,-0.0198635 0.00686541,-0.00510891 0.01622,-0.00765835 0.0280639,-0.00765835 0.00869217,0 0.0164107,0.00133494 0.0231557,0.00401486 0.00674497,0.00266988 0.0118438,0.00728697 0.0153067,0.0138513 0.00194721,0.00364349 0.00310148,0.00728697 0.00346282,0.0109305 0.000371375,0.00365352 0.000552043,0.00771857 0.000552043,0.0122152l0 0.0601526 -0.0216903 0 0 -0.0202349 0.00309144 0.00419553c-0.00479776,0.00662452 -0.00995685,0.0113922 -0.0155174,0.0143431 -0.00556058,0.00294089 -0.0126067,0.00442638 -0.0211182,0.00442638zm0.00528958 -0.0195022c0.00455687,0 0.00841113,-0.000813009 0.0115427,-0.00242899 0.00313159,-0.00160594 0.0056208,-0.00343271 0.00747768,-0.00550036 0.00184684,-0.00205762 0.00309144,-0.00379404 0.00376393,-0.00518921 0.00127472,-0.00267992 0.00203754,-0.00580147 0.00224832,-0.00935462 0.00021078,-0.00356319 0.000301115,-0.00650407 0.000301115,-0.00887284l0.00728697 0.00181672c-0.00734719,0.0012145 -0.0132992,0.00221821 -0.0178561,0.00304126 -0.00455687,0.000823046 -0.00823046,0.00157583 -0.0110308,0.00224832 -0.00279033,0.000672489 -0.00524943,0.00139516 -0.00737731,0.0021881 -0.00242899,0.000973604 -0.0043762,0.00200743 -0.00587173,0.00313159 -0.0014855,0.00112416 -0.00257955,0.00236877 -0.00327211,0.00370371 -0.000702601,0.00133494 -0.00106394,0.00282044 -0.00106394,0.00446653 0,0.00224832 0.000572118,0.00415538 0.00169628,0.00577136 0.00112416,0.00160594 0.00271003,0.00285055 0.00476765,0.00370371 0.00206765,0.000853158 0.00452675,0.00127472 0.00738734,0.00127472z"/>
   <path id="1234567" class="fil3" d="M0.797994 1.02867l0 -0.0984243 0.021871 0 0 0.024059 -0.00236877 -0.00310148c0.00127472,-0.00340259 0.00298103,-0.00650407 0.00510891,-0.0092944 0.00212788,-0.00280036 0.00473754,-0.00510891 0.00783901,-0.00692563 0.00236877,-0.00146542 0.00494832,-0.0026197 0.00773864,-0.00343271 0.00280036,-0.000823046 0.00568103,-0.00133494 0.00866206,-0.00155576 0.00298103,-0.00021078 0.00595203,-0.000120446 0.00893306,0.000250929l0 0.0231457c-0.0027301,-0.000853158 -0.00589181,-0.00115427 -0.00950518,-0.000883269 -0.00362341,0.000271003 -0.00689552,0.00112416 -0.00981633,0.00251932 -0.00292081,0.00134498 -0.00537991,0.00310148 -0.00738734,0.00531969 -0.00199739,0.00221821 -0.00352304,0.00482787 -0.00455687,0.00783901 -0.00102379,0.00301115 -0.00154572,0.00641374 -0.00154572,0.0101777l0 0.0503062 -0.0249724 0z"/>
   <path id="12345678" class="fil3" d="M0.874918 0.916573l0 -0.021881 0.0247918 0 0 0.021881 -0.0247918 0zm0 0.112095l0 -0.0984243 0.0247918 0 0 0.0984243 -0.0247918 0z"/>
   <path id="123456789" class="fil3" d="M0.927041 1.02867l0 -0.0984243 0.021871 0 0 0.024059 -0.00236877 -0.00310148c0.00127472,-0.00340259 0.00298103,-0.00650407 0.00510891,-0.0092944 0.00212788,-0.00280036 0.00473754,-0.00510891 0.00783901,-0.00692563 0.00236877,-0.00146542 0.00494832,-0.0026197 0.00773864,-0.00343271 0.00280036,-0.000823046 0.00568103,-0.00133494 0.00866206,-0.00155576 0.00298103,-0.00021078 0.00595203,-0.000120446 0.00893306,0.000250929l0 0.0231457c-0.0027301,-0.000853158 -0.00589181,-0.00115427 -0.00950518,-0.000883269 -0.00362341,0.000271003 -0.00689552,0.00112416 -0.00981633,0.00251932 -0.00292081,0.00134498 -0.00537991,0.00310148 -0.00738734,0.00531969 -0.00199739,0.00221821 -0.00352304,0.00482787 -0.00455687,0.00783901 -0.00102379,0.00301115 -0.00154572,0.00641374 -0.00154572,0.0101777l0 0.0503062 -0.0249724 0z"/>
   <path id="12345678910" class="fil3" d="M1.07851 1.0314c-0.00905351,0 -0.0169829,-0.00227843 -0.023788,-0.0068353 -0.00680519,-0.00455687 -0.0120847,-0.0107498 -0.0158888,-0.0185888 -0.00379404,-0.00783901 -0.00571114,-0.0166817 -0.00571114,-0.0265182 0,-0.0100271 0.00194721,-0.0189602 0.00580147,-0.0267691 0.0038643,-0.0078089 0.00927433,-0.0139416 0.0162602,-0.0184382 0.00698586,-0.00449664 0.0151862,-0.00674497 0.0246011,-0.00674497 0.00936466,0 0.0172238,0.00227843 0.0236074,0.0068353 0.00638363,0.00455687 0.0112115,0.0107598 0.0144936,0.0185988 0.00328215,0.00782898 0.0049182,0.0166717 0.0049182,0.0265182 0,0.00983641 -0.00163606,0.0186791 -0.00494832,0.0265182 -0.00331226,0.00783901 -0.00826057,0.0140319 -0.0148249,0.0185888 -0.0065643,0.00455687 -0.0147345,0.0068353 -0.0245208,0.0068353zm0.00401486 -0.0220516c0.00553047,0 0.00996689,-0.00124461 0.0132691,-0.00373382 0.00331226,-0.00248921 0.00568103,-0.00598214 0.00714645,-0.0104788 0.00145539,-0.00449664 0.0021881,-0.009726 0.0021881,-0.015678 0,-0.00595203 -0.000732712,-0.0111814 -0.0021881,-0.015678 -0.00146542,-0.00449664 -0.00377397,-0.00798957 -0.00695575,-0.0104788 -0.00319181,-0.00248921 -0.00738734,-0.00373382 -0.0125464,-0.00373382 -0.00553047,0 -0.0100572,0.00133494 -0.0136104,0.00403493 -0.00356319,0.00269999 -0.00620296,0.0063234 -0.00789924,0.0108502 -0.00170632,0.00452675 -0.00255947,0.00953529 -0.00255947,0.0150055 0,0.00553047 0.000823046,0.010539 0.00246914,0.0150658 0.00163606,0.00452675 0.00415538,0.00814013 0.00755797,0.01082 0.00340259,0.00266988 0.00777879,0.00400482 0.0131286,0.00400482zm0.0226037 0.0193215l0 -0.0674396 -0.00310148 0 0 -0.0637961 0.0249724 0 0 0.131236 -0.021871 0z"/>
   <path id="1234567891011" class="fil3" d="M1.17986 1.0314c-0.00704608,0 -0.0129981,-0.00136505 -0.0178962,-0.00406505 -0.00488809,-0.00271003 -0.0085918,-0.0063234 -0.0111111,-0.0108502 -0.00251932,-0.00452675 -0.00380408,-0.00950518 -0.00380408,-0.0149754 0,-0.00455687 0.000702601,-0.00871225 0.00209776,-0.0124862 0.00139516,-0.00376393 0.0036736,-0.0071063 0.00680519,-0.009997 0.00313159,-0.00288066 0.00732712,-0.00527954 0.0126067,-0.00722675 0.00364349,-0.00133494 0.00798957,-0.00251932 0.0130383,-0.00355315 0.00503865,-0.00103383 0.0107498,-0.00203754 0.0171334,-0.00298103 0.00637359,-0.000933455 0.0133996,-0.00196728 0.0210479,-0.00312155l-0.00893306 0.0049182c0,-0.00583158 -0.00139516,-0.0101174 -0.00418549,-0.0128476 -0.00280036,-0.00274014 -0.00747768,-0.00410519 -0.014042,-0.00410519 -0.00364349,0 -0.00743753,0.000883269 -0.0113922,0.00263977 -0.0039446,0.00176654 -0.00670482,0.00489813 -0.00829069,0.00939477l-0.022423 -0.00711634c0.00249925,-0.00814013 0.00717656,-0.0147646 0.014042,-0.0198635 0.00686541,-0.00510891 0.01622,-0.00765835 0.0280639,-0.00765835 0.00869217,0 0.0164107,0.00133494 0.0231557,0.00401486 0.00674497,0.00266988 0.0118438,0.00728697 0.0153067,0.0138513 0.00194721,0.00364349 0.00310148,0.00728697 0.00346282,0.0109305 0.000371375,0.00365352 0.000552043,0.00771857 0.000552043,0.0122152l0 0.0601526 -0.0216903 0 0 -0.0202349 0.00309144 0.00419553c-0.00479776,0.00662452 -0.00995685,0.0113922 -0.0155174,0.0143431 -0.00556058,0.00294089 -0.0126067,0.00442638 -0.0211182,0.00442638zm0.00528958 -0.0195022c0.00455687,0 0.00841113,-0.000813009 0.0115427,-0.00242899 0.00313159,-0.00160594 0.0056208,-0.00343271 0.00747768,-0.00550036 0.00184684,-0.00205762 0.00309144,-0.00379404 0.00376393,-0.00518921 0.00127472,-0.00267992 0.00203754,-0.00580147 0.00224832,-0.00935462 0.00021078,-0.00356319 0.000301115,-0.00650407 0.000301115,-0.00887284l0.00728697 0.00181672c-0.00734719,0.0012145 -0.0132992,0.00221821 -0.0178561,0.00304126 -0.00455687,0.000823046 -0.00823046,0.00157583 -0.0110308,0.00224832 -0.00279033,0.000672489 -0.00524943,0.00139516 -0.00737731,0.0021881 -0.00242899,0.000973604 -0.0043762,0.00200743 -0.00587173,0.00313159 -0.0014855,0.00112416 -0.00257955,0.00236877 -0.00327211,0.00370371 -0.000702601,0.00133494 -0.00106394,0.00282044 -0.00106394,0.00446653 0,0.00224832 0.000572118,0.00415538 0.00169628,0.00577136 0.00112416,0.00160594 0.00271003,0.00285055 0.00476765,0.00370371 0.00206765,0.000853158 0.00452675,0.00127472 0.00738734,0.00127472z"/>
   <path id="123456789101112" class="fil3" d="M1.32586 1.02867l0 -0.046482c0,-0.00224832 -0.000120446,-0.00512898 -0.000361337,-0.00862191 -0.000240892,-0.00349293 -0.00100372,-0.00699589 -0.00227843,-0.0105189 -0.00127472,-0.00352304 -0.00334237,-0.00646392 -0.00623307,-0.00883269 -0.00288066,-0.00236877 -0.00698586,-0.00355315 -0.0122654,-0.00355315 -0.00212788,0 -0.00440631,0.000331226 -0.0068353,0.000993678 -0.00243903,0.000672489 -0.00471746,0.00194721 -0.0068353,0.0038643 -0.00212788,0.00190706 -0.0038643,0.00473754 -0.00522936,0.00844124 -0.00136505,0.00370371 -0.00206765,0.00863195 -0.00206765,0.0147646l-0.0142126 -0.00674497c0,-0.00777879 0.00157583,-0.0150658 0.00473754,-0.021871 0.0031617,-0.00680519 0.00792935,-0.0123055 0.0142728,-0.016491 0.00635352,-0.00419553 0.0143431,-0.00629329 0.0239988,-0.00629329 0.00771857,0 0.0140119,0.00130483 0.0188698,0.00391449 0.00485798,0.0026197 0.00866206,0.00593196 0.0113621,0.00993678 0.00269999,0.00401486 0.00461709,0.00817024 0.00577136,0.0125163 0.00115427,0.00434609 0.00185687,0.0083208 0.00209776,0.0119141 0.000240892,0.00358326 0.000361337,0.00619292 0.000361337,0.00783901l0 0.0552244 -0.0251531 0zm-0.0672589 0l0 -0.0984243 0.0220516 0 0 0.0326207 0.00310148 0 0 0.0658036 -0.0251531 0z"/>
   <polygon id="12345678910111213" class="fil3" points="1.44161,1.02867 1.44161,0.920577 1.40023,0.920577 1.40023,0.897432 1.50777,0.897432 1.50777,0.920577 1.4664,0.920577 1.4664,1.02867 "/>
   <path id="1234567891011121314" class="fil3" d="M1.52235 1.02867l0 -0.0984243 0.021871 0 0 0.024059 -0.00236877 -0.00310148c0.00127472,-0.00340259 0.00298103,-0.00650407 0.00510891,-0.0092944 0.00212788,-0.00280036 0.00473754,-0.00510891 0.00783901,-0.00692563 0.00236877,-0.00146542 0.00494832,-0.0026197 0.00773864,-0.00343271 0.00280036,-0.000823046 0.00568103,-0.00133494 0.00866206,-0.00155576 0.00298103,-0.00021078 0.00595203,-0.000120446 0.00893306,0.000250929l0 0.0231457c-0.0027301,-0.000853158 -0.00589181,-0.00115427 -0.00950518,-0.000883269 -0.00362341,0.000271003 -0.00689552,0.00112416 -0.00981633,0.00251932 -0.00292081,0.00134498 -0.00537991,0.00310148 -0.00738734,0.00531969 -0.00199739,0.00221821 -0.00352304,0.00482787 -0.00455687,0.00783901 -0.00102379,0.00301115 -0.00154572,0.00641374 -0.00154572,0.0101777l0 0.0503062 -0.0249724 0z"/>
   <path id="123456789101112131415" class="fil3" d="M1.62479 1.0314c-0.00704608,0 -0.0129981,-0.00136505 -0.0178962,-0.00406505 -0.00488809,-0.00271003 -0.0085918,-0.0063234 -0.0111111,-0.0108502 -0.00251932,-0.00452675 -0.00380408,-0.00950518 -0.00380408,-0.0149754 0,-0.00455687 0.000702601,-0.00871225 0.00209776,-0.0124862 0.00139516,-0.00376393 0.0036736,-0.0071063 0.00680519,-0.009997 0.00313159,-0.00288066 0.00732712,-0.00527954 0.0126067,-0.00722675 0.00364349,-0.00133494 0.00798957,-0.00251932 0.0130383,-0.00355315 0.00503865,-0.00103383 0.0107498,-0.00203754 0.0171334,-0.00298103 0.00637359,-0.000933455 0.0133996,-0.00196728 0.0210479,-0.00312155l-0.00893306 0.0049182c0,-0.00583158 -0.00139516,-0.0101174 -0.00418549,-0.0128476 -0.00280036,-0.00274014 -0.00747768,-0.00410519 -0.014042,-0.00410519 -0.00364349,0 -0.00743753,0.000883269 -0.0113922,0.00263977 -0.0039446,0.00176654 -0.00670482,0.00489813 -0.00829069,0.00939477l-0.022423 -0.00711634c0.00249925,-0.00814013 0.00717656,-0.0147646 0.014042,-0.0198635 0.00686541,-0.00510891 0.01622,-0.00765835 0.0280639,-0.00765835 0.00869217,0 0.0164107,0.00133494 0.0231557,0.00401486 0.00674497,0.00266988 0.0118438,0.00728697 0.0153067,0.0138513 0.00194721,0.00364349 0.00310148,0.00728697 0.00346282,0.0109305 0.000371375,0.00365352 0.000552043,0.00771857 0.000552043,0.0122152l0 0.0601526 -0.0216903 0 0 -0.0202349 0.00309144 0.00419553c-0.00479776,0.00662452 -0.00995685,0.0113922 -0.0155174,0.0143431 -0.00556058,0.00294089 -0.0126067,0.00442638 -0.0211182,0.00442638zm0.00528958 -0.0195022c0.00455687,0 0.00841113,-0.000813009 0.0115427,-0.00242899 0.00313159,-0.00160594 0.0056208,-0.00343271 0.00747768,-0.00550036 0.00184684,-0.00205762 0.00309144,-0.00379404 0.00376393,-0.00518921 0.00127472,-0.00267992 0.00203754,-0.00580147 0.00224832,-0.00935462 0.00021078,-0.00356319 0.000301115,-0.00650407 0.000301115,-0.00887284l0.00728697 0.00181672c-0.00734719,0.0012145 -0.0132992,0.00221821 -0.0178561,0.00304126 -0.00455687,0.000823046 -0.00823046,0.00157583 -0.0110308,0.00224832 -0.00279033,0.000672489 -0.00524943,0.00139516 -0.00737731,0.0021881 -0.00242899,0.000973604 -0.0043762,0.00200743 -0.00587173,0.00313159 -0.0014855,0.00112416 -0.00257955,0.00236877 -0.00327211,0.00370371 -0.000702601,0.00133494 -0.00106394,0.00282044 -0.00106394,0.00446653 0,0.00224832 0.000572118,0.00415538 0.00169628,0.00577136 0.00112416,0.00160594 0.00271003,0.00285055 0.00476765,0.00370371 0.00206765,0.000853158 0.00452675,0.00127472 0.00738734,0.00127472z"/>
   <path id="12345678910111213141516" class="fil3" d="M1.7471 1.0314c-0.0102078,0 -0.0189501,-0.00227843 -0.0262471,-0.0068353 -0.00728697,-0.00455687 -0.0128777,-0.0107498 -0.016762,-0.0185888 -0.00389441,-0.00783901 -0.00584162,-0.0166817 -0.00584162,-0.0265182 0,-0.00996689 0.00203754,-0.0188698 0.00608251,-0.0267089 0.00403493,-0.00783901 0.00971596,-0.0140018 0.0170732,-0.0184985 0.00734719,-0.00449664 0.0160394,-0.00674497 0.0260665,-0.00674497 0.0116029,0 0.021349,0.00292081 0.0292181,0.00878251 0.00786913,0.0058617 0.0128877,0.0138814 0.0150658,0.0240289l-0.0247817 0.0065643c-0.00146542,-0.00510891 -0.00398475,-0.00908362 -0.00759812,-0.0119442 -0.00361337,-0.00285055 -0.00771857,-0.00427583 -0.0122754,-0.00427583 -0.00521932,0 -0.00950518,0.00124461 -0.0128476,0.00376393 -0.00334237,0.00251932 -0.00580147,0.00595203 -0.00737731,0.0102981 -0.00158587,0.00434609 -0.0023788,0.00926429 -0.0023788,0.0147345 0,0.00856169 0.0019171,0.0154873 0.00571114,0.020807 0.00380408,0.00531969 0.00942488,0.00798957 0.0168925,0.00798957 0.00559069,0 0.00984644,-0.00127472 0.0127572,-0.00382415 0.00292081,-0.00255947 0.00510891,-0.00620296 0.0065643,-0.0109405l0.0253338 0.00528958c-0.00279033,0.0104487 -0.00807991,0.0184985 -0.0158487,0.0241494 -0.00777879,0.00565092 -0.0173843,0.00847136 -0.0288066,0.00847136z"/>
   <path id="1234567891011121314151617" class="fil3" d="M1.85573 1.0314c-0.0100773,0 -0.0189501,-0.0021881 -0.0266386,-0.00652415 -0.00768846,-0.00434609 -0.0137007,-0.0103282 -0.0180468,-0.0179565 -0.00434609,-0.00762823 -0.00653418,-0.0163405 -0.00653418,-0.0261869 0,-0.0107598 0.00212788,-0.0201144 0.00638363,-0.0280739 0.00425575,-0.00795946 0.0101174,-0.0141524 0.0175851,-0.0185587 0.00747768,-0.00440631 0.0160795,-0.00659441 0.0257955,-0.00659441 0.0103282,0 0.0191107,0.00242899 0.0263375,0.00729701 0.00723679,0.00485798 0.0125765,0.0116933 0.0160394,0.0205059 0.00346282,0.00880258 0.00467731,0.0191609 0.00364349,0.031075l-0.0245107 0 0 -0.00911373c0,-0.0100271 -0.00157583,-0.0172539 -0.00476765,-0.0216602 -0.00319181,-0.00440631 -0.00842117,-0.00659441 -0.0156479,-0.00659441 -0.00844124,0 -0.0146442,0.00254944 -0.0186189,0.00768846 -0.00398475,0.00512898 -0.00599218,0.0127271 -0.00599218,0.0227542 0,0.00917396 0.00200743,0.0162501 0.00599218,0.0212587 0.00397471,0.00501858 0.0098063,0.0075379 0.0175249,0.0075379 0.00485798,0 0.0090234,-0.00106394 0.0124862,-0.00319181 0.00346282,-0.00212788 0.00610259,-0.00518921 0.00792935,-0.00920407l0.0247918 0.0071063c-0.00370371,0.00899329 -0.00954533,0.0159791 -0.0175349,0.0209676 -0.00798957,0.00497843 -0.0167319,0.00746764 -0.026217,0.00746764zm-0.0326207 -0.0450166l0 -0.0184081 0.0652515 0 0 0.0184081 -0.0652515 0z"/>
   <path id="123456789101112131415161718" class="fil3" d="M1.9208 1.02867l0 -0.0984243 0.021871 0 0 0.024059 -0.00236877 -0.00310148c0.00127472,-0.00340259 0.00298103,-0.00650407 0.00510891,-0.0092944 0.00212788,-0.00280036 0.00473754,-0.00510891 0.00783901,-0.00692563 0.00236877,-0.00146542 0.00494832,-0.0026197 0.00773864,-0.00343271 0.00280036,-0.000823046 0.00568103,-0.00133494 0.00866206,-0.00155576 0.00298103,-0.00021078 0.00595203,-0.000120446 0.00893306,0.000250929l0 0.0231457c-0.0027301,-0.000853158 -0.00589181,-0.00115427 -0.00950518,-0.000883269 -0.00362341,0.000271003 -0.00689552,0.00112416 -0.00981633,0.00251932 -0.00292081,0.00134498 -0.00537991,0.00310148 -0.00738734,0.00531969 -0.00199739,0.00221821 -0.00352304,0.00482787 -0.00455687,0.00783901 -0.00102379,0.00301115 -0.00154572,0.00641374 -0.00154572,0.0101777l0 0.0503062 -0.0249724 0z"/>
   <path id="12345678910111213141516171819" class="fil3" d="M2.08194 1.0314c-0.009726,0 -0.0184684,-0.00172639 -0.0262773,-0.0051591 -0.0078089,-0.00343271 -0.0142226,-0.00835091 -0.0192312,-0.0147646 -0.00501858,-0.00641374 -0.00820035,-0.0140319 -0.00954533,-0.0229048l0.0258858 -0.00383419c0.00182676,0.0075379 0.00559069,0.0133394 0.0113018,0.0174145 0.00571114,0.00406505 0.0122152,0.00610259 0.0195022,0.00610259 0.00407508,0 0.00801968,-0.00063234 0.0118539,-0.0019171 0.00382415,-0.00127472 0.00698586,-0.00315167 0.00944496,-0.00565092 0.0024591,-0.00248921 0.0036736,-0.00555054 0.0036736,-0.00920407 0,-0.00133494 -0.000180669,-0.00263977 -0.000572118,-0.00388438 -0.000401486,-0.00124461 -0.00106394,-0.00239888 -0.00197732,-0.00349293 -0.000913381,-0.00109405 -0.0021881,-0.00212788 -0.0038643,-0.00310148 -0.00166617,-0.000973604 -0.00379404,-0.00184684 -0.00634348,-0.00263977l-0.0340862 -0.0100271c-0.00254944,-0.000732712 -0.00550036,-0.00176654 -0.00887284,-0.00310148 -0.00337248,-0.00133494 -0.00665463,-0.00325204 -0.0098063,-0.00574125 -0.0031617,-0.00248921 -0.0057814,-0.00580147 -0.00786913,-0.00989663 -0.00209776,-0.00410519 -0.0031617,-0.00927433 -0.0031617,-0.0155275 0,-0.00881262 0.00221821,-0.0161297 0.00665463,-0.0219613 0.00443642,-0.00583158 0.0103583,-0.0101777 0.0177658,-0.0130383 0.00741745,-0.00285055 0.0156178,-0.00424571 0.0246111,-0.00418549 0.00905351,0.000120446 0.0171334,0.00166617 0.0242397,0.0046472 0.0071063,0.002971 0.0130684,0.00728697 0.0178661,0.012968 0.00479776,0.00568103 0.00826057,0.0126368 0.0103885,0.0208371l-0.0267992 0.00455687c-0.000963566,-0.00424571 -0.00276022,-0.00783901 -0.00536988,-0.0107498 -0.0026197,-0.00292081 -0.00571114,-0.00513902 -0.00932451,-0.00665463 -0.00362341,-0.00151561 -0.00741745,-0.00233866 -0.0113621,-0.0024591 -0.00389441,-0.000120446 -0.0075379,0.000391449 -0.0109706,0.00157583 -0.00343271,0.00118438 -0.00622303,0.00292081 -0.00838102,0.00516913 -0.00215799,0.00224832 -0.00325204,0.0049182 -0.00325204,0.00801968 0,0.00285055 0.000883269,0.0051591 0.00263977,0.00695575 0.00176654,0.00179665 0.00398475,0.00325204 0.00665463,0.00434609 0.00266988,0.00109405 0.00541002,0.00200743 0.00820035,0.0027301l0.0227843 0.00620296c0.00340259,0.000903344 0.00716653,0.00208773 0.0113018,0.00358326 0.00413531,0.0014855 0.00811002,0.00355315 0.0119041,0.00619292 0.00380408,0.00264981 0.00693567,0.00614274 0.00939477,0.0104487 0.0024591,0.00431597 0.0036736,0.00978622 0.0036736,0.0164107 0,0.00704608 -0.00145539,0.0131788 -0.00440631,0.0184382 -0.00294089,0.00525947 -0.00692563,0.00959552 -0.0119041,0.0130282 -0.00498846,0.00343271 -0.0106093,0.00602229 -0.0168925,0.00771857 -0.00629329,0.00170632 -0.0127873,0.00254944 -0.0194721,0.00254944z"/>
   <path id="1234567891011121314151617181920" class="fil3" d="M2.21371 1.02867c-0.00680519,0.00127472 -0.0134598,0.00182676 -0.019994,0.00166617 -0.00652415,-0.000150557 -0.0123557,-0.00130483 -0.0174948,-0.00346282 -0.00512898,-0.00214795 -0.00905351,-0.0056208 -0.0117234,-0.0104186 -0.00242899,-0.00449664 -0.00370371,-0.00908362 -0.00383419,-0.0137308 -0.000120446,-0.0046472 -0.000180669,-0.00989663 -0.000180669,-0.0157985l0 -0.084021 0.0247918 0 0 0.0825656c0,0.00382415 6.02229e-005,0.00725686 0.000150557,0.0103282 9.03344e-005,0.00307137 0.000702601,0.00553047 0.00185687,0.00735723 0.0021881,0.00346282 0.00568103,0.00533976 0.0104788,0.00565092 0.00479776,0.000301115 0.0101174,6.02229e-005 0.015949,-0.000732712l0 0.0205962zm-0.0699891 -0.0792935l0 -0.0191308 0.0699891 0 0 0.0191308 -0.0699891 0z"/>
   <path id="123456789101112131415161718192021" class="fil3" d="M2.27222 1.03159c-0.00770853,0 -0.0140018,-0.00131487 -0.0188598,-0.00392453 -0.00485798,-0.00260966 -0.00863195,-0.00592192 -0.0113319,-0.00993678 -0.00271003,-0.00400482 -0.0046472,-0.00820035 -0.00580147,-0.0125464 -0.00115427,-0.00433605 -0.00185687,-0.00829069 -0.00209776,-0.0118739 -0.000240892,-0.00358326 -0.000361337,-0.00619292 -0.000361337,-0.00783901l0 -0.0552244 0.0251531 0 0 0.046472c0,0.00224832 0.000120446,0.00510891 0.000361337,0.00860184 0.000240892,0.00349293 0.00100372,0.00701597 0.00227843,0.010539 0.00127472,0.00352304 0.00337248,0.00647396 0.00625314,0.00884273 0.0028907,0.00236877 0.00696578,0.00355315 0.0122453,0.00355315 0.00212788,0 0.00440631,-0.000331226 0.0068353,-0.00100372 0.00242899,-0.000662452 0.00470742,-0.00197732 0.0068353,-0.00388438 0.00212788,-0.0019171 0.00389441,-0.00473754 0.00525947,-0.00848139 0.00136505,-0.00373382 0.00203754,-0.00862191 0.00203754,-0.0147044l0.0142126 0.00674497c0,0.00777879 -0.00157583,0.0150758 -0.00473754,0.021881 -0.0031617,0.00680519 -0.00789924,0.0122955 -0.0142528,0.016491 -0.00634348,0.00419553 -0.0143632,0.00629329 -0.0240289,0.00629329zm0.0318981 -0.00292081l0 -0.0326308 -0.00309144 0 0 -0.0657935 0.0249724 0 0 0.0984243 -0.021881 0z"/>
   <path id="12345678910111213141516171819202122" class="fil3" d="M2.39143 1.0314c-0.00905351,0 -0.0169829,-0.00227843 -0.023788,-0.0068353 -0.00680519,-0.00455687 -0.0120847,-0.0107498 -0.0158888,-0.0185888 -0.00379404,-0.00783901 -0.00571114,-0.0166817 -0.00571114,-0.0265182 0,-0.0100271 0.00194721,-0.0189602 0.00580147,-0.0267691 0.0038643,-0.0078089 0.00927433,-0.0139416 0.0162602,-0.0184382 0.00698586,-0.00449664 0.0151862,-0.00674497 0.0246011,-0.00674497 0.00936466,0 0.0172238,0.00227843 0.0236074,0.0068353 0.00638363,0.00455687 0.0112115,0.0107598 0.0144936,0.0185988 0.00328215,0.00782898 0.0049182,0.0166717 0.0049182,0.0265182 0,0.00983641 -0.00163606,0.0186791 -0.00494832,0.0265182 -0.00331226,0.00783901 -0.00826057,0.0140319 -0.0148249,0.0185888 -0.0065643,0.00455687 -0.0147345,0.0068353 -0.0245208,0.0068353zm0.00401486 -0.0220516c0.00553047,0 0.00996689,-0.00124461 0.0132691,-0.00373382 0.00331226,-0.00248921 0.00568103,-0.00598214 0.00714645,-0.0104788 0.00145539,-0.00449664 0.0021881,-0.009726 0.0021881,-0.015678 0,-0.00595203 -0.000732712,-0.0111814 -0.0021881,-0.015678 -0.00146542,-0.00449664 -0.00377397,-0.00798957 -0.00695575,-0.0104788 -0.00319181,-0.00248921 -0.00738734,-0.00373382 -0.0125464,-0.00373382 -0.00553047,0 -0.0100572,0.00133494 -0.0136104,0.00403493 -0.00356319,0.00269999 -0.00620296,0.0063234 -0.00789924,0.0108502 -0.00170632,0.00452675 -0.00255947,0.00953529 -0.00255947,0.0150055 0,0.00553047 0.000823046,0.010539 0.00246914,0.0150658 0.00163606,0.00452675 0.00415538,0.00814013 0.00755797,0.01082 0.00340259,0.00266988 0.00777879,0.00400482 0.0131286,0.00400482zm0.0226037 0.0193215l0 -0.0674396 -0.00310148 0 0 -0.0637961 0.0249724 0 0 0.131236 -0.021871 0z"/>
   <polygon id="1234567891011121314151617181920212223" class="fil3" points="2.47801,1.07241 2.49697,1.02029 2.49733,1.03559 2.4545,0.930243 2.4802,0.930243 2.509,1.00479 2.50316,1.00479 2.53178,0.930243 2.55657,0.930243 2.50098,1.07241 "/>
  </g>
 </g>
</svg>
